<svg height="512pt" viewBox="0 0 512 512" width="512pt" xmlns="http://www.w3.org/2000/svg"><path d="m297.976562 10h-267.976562c-11.046875 0-20 8.953125-20 20v452c0 11.046875 8.953125 20 20 20h343.976562c11.042969 0 20-8.953125 20-20v-375.996094zm0 0" fill="#fff"/><path d="m317.976562 106.003906h76l-96-96v76c0 11.046875 8.953126 20 20 20zm0 0" fill="#feda9b"/><path d="m158 412.375h32v89.625h-32zm0 0" fill="#36d28f"/><path d="m366 285h32v217h-32zm0 0" fill="#72d8ff"/><path d="m256 355h38v147h-38zm0 0" fill="#ffc66c"/><path d="m463 218.75h39v283.25h-39zm0 0" fill="#4dbaf6"/><path d="m145.574219 174.152344v-65.722656c-20.011719 14.949218-32.972657 38.820312-32.972657 65.722656 0 36.738281 24.167969 67.832031 57.472657 78.25 33.308593-10.417969 57.476562-41.511719 57.476562-78.25zm0 0" fill="#36d28f"/><path d="m182.597656 71.15625v102.996094h72.402344c0-47.4375-30.191406-87.820313-72.402344-102.996094zm0 0" fill="#ffc66c"/><path d="m502 208.75h-64c-5.523438 0-10 4.476562-10 10v50.5c0 5.519531 4.476562 10 10 10s10-4.480469 10-10v-40.5h44v263.25h-44v-147.75c0-5.523438-4.476562-10-10-10s-10 4.476562-10 10v147.75h-20v-207c0-5.523438-4.476562-10-10-10h-64c-5.523438 0-10 4.476562-10 10v207h-20v-137c0-5.523438-4.476562-10-10-10h-64c-5.523438 0-10 4.476562-10 10v137h-20v-79.625c0-5.523438-4.476562-10-10-10h-64c-5.523438 0-10 4.476562-10 10v79.625h-86c-5.515625 0-10-4.484375-10-10v-452c0-5.515625 4.484375-10 10-10h257.976562v66.003906c0 16.542969 13.457032 30 30 30h66v122.996094c0 5.523438 4.476563 10 10 10 5.519532 0 10-4.476562 10-10v-132.996094c0-2.652344-1.054687-5.195312-2.929687-7.070312l-96-96.003906c-1.875-1.875-4.417969-2.929688-7.070313-2.929688h-267.976562c-16.542969 0-30 13.457031-30 30v452c0 16.542969 13.457031 30 30 30h472c5.523438 0 10-4.476562 10-10v-283.25c0-5.523438-4.476562-10-10-10zm-194.023438-122.746094v-51.859375l61.859376 61.859375h-51.859376c-5.515624 0-10-4.488281-10-10zm-171.976562 405.996094v-69.625h44v69.625zm104 0v-127h44v127zm104 0v-197h44v197zm0 0"/><path d="m438 314.890625c2.628906 0 5.210938-1.070313 7.070312-2.929687 1.859376-1.859376 2.929688-4.441407 2.929688-7.070313s-1.070312-5.210937-2.929688-7.070313c-1.859374-1.871093-4.441406-2.929687-7.070312-2.929687s-5.210938 1.058594-7.070312 2.929687c-1.859376 1.859376-2.929688 4.441407-2.929688 7.070313s1.070312 5.210937 2.929688 7.070313c1.859374 1.859374 4.441406 2.929687 7.070312 2.929687zm0 0"/><path d="m145.578125 54.730469c-5.523437 0-10 4.476562-10 10v17.988281c-46.03125 4.996094-81.976563 44.097656-81.976563 91.433594 0 50.714844 41.261719 91.976562 91.976563 91.976562 47.335937 0 86.4375-35.945312 91.433594-81.976562h17.988281c5.523438 0 10-4.476563 10-10 0-65.851563-53.574219-119.421875-119.421875-119.421875zm0 191.398437c-39.6875 0-71.976563-32.289062-71.976563-71.976562 0-36.292969 27.003907-66.398438 61.976563-71.28125v71.28125c0 5.523437 4.476563 10 10 10h71.28125c-4.882813 34.96875-34.988281 61.976562-71.28125 61.976562zm10-81.976562v-88.925782c46.851563 4.703126 84.222656 42.074219 88.921875 88.925782zm0 0"/><path d="m265 304.25c0-5.523438-4.476562-10-10-10h-191c-5.523438 0-10 4.476562-10 10s4.476562 10 10 10h191c5.523438 0 10-4.476562 10-10zm0 0"/><path d="m64 342.5c-5.523438 0-10 4.476562-10 10s4.476562 10 10 10h64c5.523438 0 10-4.476562 10-10s-4.476562-10-10-10zm0 0"/><path d="m171.011719 345.429688c-1.871094 1.859374-2.933594 4.441406-2.933594 7.070312s1.0625 5.210938 2.933594 7.070312c1.859375 1.859376 4.429687 2.929688 7.066406 2.929688 2.632813 0 5.210937-1.070312 7.070313-2.929688 1.863281-1.859374 2.929687-4.441406 2.929687-7.070312s-1.066406-5.210938-2.929687-7.070312c-1.859376-1.859376-4.4375-2.929688-7.070313-2.929688-2.636719 0-5.207031 1.070312-7.066406 2.929688zm0 0"/></svg>