<?xml version="1.0" encoding="iso-8859-1"?>
<!-- Generator: Adobe Illustrator 19.0.0, SVG Export Plug-In . SVG Version: 6.00 Build 0)  -->
<svg version="1.1" id="Capa_1" xmlns="http://www.w3.org/2000/svg" xmlns:xlink="http://www.w3.org/1999/xlink" x="0px" y="0px"
	 viewBox="0 0 512 512" style="enable-background:new 0 0 512 512;" xml:space="preserve">
<polygon style="fill:#0071BC;" points="446.915,512 507.661,338.441 351.458,338.441 "/>
<rect x="117.153" y="78.102" style="fill:#B2DECF;" width="303.729" height="399.186"/>
<rect x="82.441" y="43.39" style="fill:#E6E6E6;" width="303.729" height="364.475"/>
<polygon style="fill:#29ABE2;" points="446.915,512 351.458,338.441 4.339,338.441 99.797,512 "/>
<path style="fill:#0071BC;" d="M151.864,104.136c-14.379,0-26.034-11.655-26.034-26.034v-8.678h17.356v8.678
	c0,4.79,3.888,8.678,8.678,8.678s8.678-3.888,8.678-8.678v-43.39c0-9.589-7.767-17.356-17.356-17.356
	c-9.589,0-17.356,7.767-17.356,17.356v8.678h-17.356v-8.678C108.475,15.542,124.017,0,143.186,0s34.712,15.542,34.712,34.712v43.39
	C177.898,92.481,166.244,104.136,151.864,104.136z"/>
<g>
	<path style="fill:#80CAEC;" d="M464.271,190.915h-17.356V69.424c0-9.589-7.767-17.356-17.356-17.356h-17.356V34.712h17.356
		c19.17,0,34.712,15.542,34.712,34.712V190.915z"/>
	<rect x="446.915" y="208.271" style="fill:#80CAEC;" width="17.356" height="17.356"/>
	<rect x="39.051" y="173.559" style="fill:#80CAEC;" width="17.356" height="121.492"/>
	<rect x="39.051" y="138.847" style="fill:#80CAEC;" width="17.356" height="17.356"/>
</g>
<polygon style="fill:#0071BC;" points="290.712,121.492 256,121.492 256,86.78 221.288,86.78 221.288,121.492 186.576,121.492 
	186.576,156.203 221.288,156.203 221.288,190.915 256,190.915 256,156.203 290.712,156.203 "/>
<g>
	<rect x="134.508" y="216.949" style="fill:#999999;" width="17.356" height="17.356"/>
	<rect x="169.22" y="216.949" style="fill:#999999;" width="182.237" height="17.356"/>
	<rect x="117.153" y="251.661" style="fill:#999999;" width="234.305" height="17.356"/>
	<rect x="117.153" y="286.373" style="fill:#999999;" width="199.593" height="17.356"/>
	<rect x="341.304" y="78.102" style="fill:#999999;" width="17.851" height="17.356"/>
	<rect x="342.78" y="112.814" style="fill:#999999;" width="17.356" height="17.356"/>
</g>
<g>
</g>
<g>
</g>
<g>
</g>
<g>
</g>
<g>
</g>
<g>
</g>
<g>
</g>
<g>
</g>
<g>
</g>
<g>
</g>
<g>
</g>
<g>
</g>
<g>
</g>
<g>
</g>
<g>
</g>
</svg>
