<?xml version="1.0" encoding="UTF-8" standalone="no"?><!DOCTYPE svg PUBLIC "-//W3C//DTD SVG 1.1//EN" "http://www.w3.org/Graphics/SVG/1.1/DTD/svg11.dtd"><svg width="100%" height="100%" viewBox="0 0 289 261" version="1.1" xmlns="http://www.w3.org/2000/svg" xmlns:xlink="http://www.w3.org/1999/xlink" xml:space="preserve" xmlns:serif="http://www.serif.com/" style="fill-rule:evenodd;clip-rule:evenodd;stroke-linejoin:round;stroke-miterlimit:1.41421;"><g id="icon-phone-request"><circle cx="147.672" cy="148.321" r="112.253" style="fill:#f3f7ff;"/><path d="M125.71,80.881c0,0 -14.025,0 -19.915,0c-1.412,0 -2.557,1.145 -2.557,2.557c0,0.063 0,0.126 0,0.189c0,1.412 1.145,2.557 2.557,2.557c5.89,0 19.915,0 19.915,0l0,-5.303Z" style="fill:#1b5680;"/><path d="M125.71,93.231c0,0 -33.959,0 -43.655,0c-1.412,0 -2.557,1.145 -2.557,2.557c0,0.063 0,0.126 0,0.189c0,1.412 1.145,2.557 2.557,2.557c9.696,0 43.655,0 43.655,0l0,-5.303Z" style="fill:#1b5680;"/><path d="M174.15,186.276c0,0 46.332,0 57.826,0c0.678,0 1.329,0.27 1.808,0.749c0.48,0.48 0.749,1.13 0.749,1.808c0,0.063 0,0.126 0,0.19c0,0.678 -0.269,1.328 -0.749,1.808c-0.479,0.479 -1.13,0.748 -1.808,0.748c-11.494,0 -57.826,0 -57.826,0l0,-5.303Z" style="fill:#1b5680;"/><path d="M195.407,201.52c0,-0.703 0.279,-1.377 0.776,-1.874c0.497,-0.497 1.171,-0.776 1.874,-0.776c5.221,0 16.784,0 22.006,0c0.702,0 1.376,0.279 1.873,0.776c0.497,0.497 0.777,1.171 0.777,1.874c0,0.001 0,0.002 0,0.003c0,0.703 -0.28,1.377 -0.777,1.874c-0.497,0.497 -1.171,0.776 -1.873,0.776c-5.222,0 -16.785,0 -22.006,0c-0.703,0 -1.377,-0.279 -1.874,-0.776c-0.497,-0.497 -0.776,-1.171 -0.776,-1.874c0,-0.001 0,-0.002 0,-0.003Z" style="fill:#1b5680;"/><path d="M5.489,217.483c0,-1.463 1.186,-2.65 2.65,-2.65c2.584,0 6.493,0 9.077,0c1.463,0 2.65,1.187 2.65,2.65c0,0.001 0,0.002 0,0.003c0,1.464 -1.187,2.65 -2.65,2.65c-2.584,0 -6.493,0 -9.077,0c-1.464,0 -2.65,-1.186 -2.65,-2.65c0,-0.001 0,-0.002 0,-0.003Z" style="fill:#1b5680;"/><path d="M34.636,217.483c0,-0.702 0.279,-1.377 0.776,-1.873c0.497,-0.497 1.171,-0.777 1.874,-0.777c7.317,0 27.742,0 35.06,0c0.702,0 1.376,0.28 1.873,0.777c0.497,0.496 0.777,1.171 0.777,1.873c0,0.001 0,0.002 0,0.003c0,0.703 -0.28,1.377 -0.777,1.874c-0.497,0.497 -1.171,0.776 -1.873,0.776c-7.318,0 -27.743,0 -35.06,0c-0.703,0 -1.377,-0.279 -1.874,-0.776c-0.497,-0.497 -0.776,-1.171 -0.776,-1.874c0,-0.001 0,-0.002 0,-0.003Z" style="fill:#1b5680;"/><g><path d="M217.588,74.758c-0.868,-2.212 -2.58,-3.988 -4.758,-4.938c-2.178,-0.95 -4.644,-0.996 -6.856,-0.128c-1.968,0.773 -4.066,1.596 -6.033,2.369c-2.212,0.868 -3.989,2.58 -4.939,4.758c-0.95,2.178 -0.995,4.645 -0.127,6.857c0.026,0.066 0.052,0.133 0.078,0.199c0.869,2.212 2.58,3.989 4.758,4.939c2.179,0.95 4.645,0.996 6.857,0.127c1.968,-0.772 4.065,-1.596 6.033,-2.368c2.212,-0.869 3.988,-2.58 4.938,-4.758c0.95,-2.179 0.996,-4.645 0.128,-6.857c-0.027,-0.067 -0.053,-0.133 -0.079,-0.2Z" style="fill:#1b5680;"/><path d="M213.35,76.028c-0.478,-1.219 -1.422,-2.198 -2.622,-2.722c-1.201,-0.523 -2.561,-0.549 -3.78,-0.07c-1.744,0.685 -3.729,1.464 -5.473,2.149c-1.219,0.478 -2.198,1.422 -2.722,2.622c-0.523,1.201 -0.549,2.56 -0.07,3.78c0.106,0.269 0.212,0.539 0.317,0.808c0.479,1.219 1.423,2.198 2.623,2.722c1.201,0.524 2.56,0.549 3.779,0.07c1.744,-0.684 3.729,-1.464 5.473,-2.148c1.22,-0.479 2.199,-1.422 2.722,-2.623c0.524,-1.201 0.549,-2.56 0.071,-3.779c-0.106,-0.269 -0.212,-0.54 -0.318,-0.809Z" style="fill:#fbddca;"/></g><path d="M203.175,51.196c0,-3.022 -1.2,-5.92 -3.337,-8.056c-2.136,-2.137 -5.034,-3.337 -8.056,-3.337c-14.967,0 -41.099,0 -56.065,0c-3.022,0 -5.92,1.2 -8.056,3.337c-2.137,2.136 -3.337,5.034 -3.337,8.056c0,26.327 0,91.144 0,117.471c0,3.022 1.2,5.92 3.337,8.057c2.136,2.136 5.034,3.336 8.056,3.336c14.966,0 41.098,0 56.065,0c3.022,0 5.92,-1.2 8.056,-3.336c2.137,-2.137 3.337,-5.035 3.337,-8.057c0,-26.327 0,-91.144 0,-117.471Z" style="fill:#1b5680;"/><path d="M198.948,51.613c0,-1.934 -0.768,-3.788 -2.135,-5.155c-1.367,-1.367 -3.221,-2.135 -5.155,-2.135c-13.571,0 -42.562,0 -56.133,0c-1.934,0 -3.788,0.768 -5.155,2.135c-1.367,1.367 -2.135,3.221 -2.135,5.155c0,23.049 0,94.186 0,117.236c0,1.933 0.768,3.787 2.135,5.154c1.367,1.368 3.221,2.136 5.155,2.136c13.571,0 42.562,0 56.133,0c1.934,0 3.788,-0.768 5.155,-2.136c1.367,-1.367 2.135,-3.221 2.135,-5.154c0,-23.05 0,-94.187 0,-117.236Z" style="fill:#e3e4e4;"/><clipPath id="_clip1"><path d="M198.948,51.613c0,-1.934 -0.768,-3.788 -2.135,-5.155c-1.367,-1.367 -3.221,-2.135 -5.155,-2.135c-13.571,0 -42.562,0 -56.133,0c-1.934,0 -3.788,0.768 -5.155,2.135c-1.367,1.367 -2.135,3.221 -2.135,5.155c0,23.049 0,94.186 0,117.236c0,1.933 0.768,3.787 2.135,5.154c1.367,1.368 3.221,2.136 5.155,2.136c13.571,0 42.562,0 56.133,0c1.934,0 3.788,-0.768 5.155,-2.136c1.367,-1.367 2.135,-3.221 2.135,-5.154c0,-23.05 0,-94.187 0,-117.236Z"/></clipPath><g clip-path="url(#_clip1)"><path d="M195.948,51.613c0,-1.934 -0.768,-3.788 -2.135,-5.155c-1.367,-1.367 -3.221,-2.135 -5.155,-2.135c-13.571,0 -42.562,0 -56.133,0c-1.934,0 -3.788,0.768 -5.155,2.135c-1.367,1.367 -2.135,3.221 -2.135,5.155c0,23.049 0,94.186 0,117.236c0,1.933 0.768,3.787 2.135,5.154c1.367,1.368 3.221,2.136 5.155,2.136c13.571,0 42.562,0 56.133,0c1.934,0 3.788,-0.768 5.155,-2.136c1.367,-1.367 2.135,-3.221 2.135,-5.154c0,-23.05 0,-94.187 0,-117.236Z" style="fill:#fff;"/></g><rect x="132.122" y="57.915" width="63.287" height="104.608" style="fill:#1b5680;"/><rect x="135.81" y="62.164" width="55.272" height="96.231" style="fill:#3adada;"/><rect x="142.384" y="62.164" width="6.537" height="96.231" style="fill:#fff;"/><path d="M173.499,50.705c0,-0.587 -0.234,-1.15 -0.649,-1.565c-0.415,-0.416 -0.978,-0.649 -1.565,-0.649c-3.091,0 -8.666,0 -11.757,0c-0.587,0 -1.15,0.233 -1.565,0.649c-0.416,0.415 -0.649,0.978 -0.649,1.565c0,0.001 0,0.002 0,0.003c0,0.587 0.233,1.15 0.649,1.565c0.415,0.415 0.978,0.649 1.565,0.649c3.091,0 8.666,0 11.757,0c0.587,0 1.15,-0.234 1.565,-0.649c0.415,-0.415 0.649,-0.978 0.649,-1.565c0,-0.001 0,-0.002 0,-0.003Z" style="fill:#1b5680;"/><path d="M169.671,168.621c0,-1.11 -0.9,-2.01 -2.01,-2.01c-1.202,0 -2.725,0 -3.927,0c-1.11,0 -2.01,0.9 -2.01,2.01c0,0 0,0 0,0.001c0,1.11 0.9,2.01 2.01,2.01c1.202,0 2.725,0 3.927,0c1.11,0 2.01,-0.9 2.01,-2.01c0,-0.001 0,-0.001 0,-0.001Z" style="fill:#1b5680;"/><circle cx="164.044" cy="105.335" r="25.344" style="fill:#1b5680;"/><g><circle cx="164.044" cy="105.335" r="21.135" style="fill:#fcc309;"/><path d="M166.402,113.226l0,5.894l-5.972,0l0,-5.894l5.972,0Zm1.04,-12.436c0,1.926 -1.81,3.159 -6.453,3.351l-0.192,0.193l0.847,5.971l3.853,0l0.404,-2.253c3.93,-0.694 7.108,-2.62 7.108,-7.339c0,-4.893 -3.602,-7.706 -8.918,-7.706c-3.45,-0.082 -6.756,1.38 -9.015,3.988l3.39,3.718c1.408,-1.582 3.411,-2.505 5.528,-2.543c2.196,0 3.448,0.963 3.448,2.62Z" style="fill:#fff;fill-rule:nonzero;"/></g><path d="M169.909,210.259l-37.38,0l0,-31.92l59.164,0l-21.784,21.589l0,10.331Z" style="fill:#1b5680;"/><path d="M165.716,210.259l-33.316,0l0,-30.92l53.1,0l-19.784,18.589l0,12.331Z" style="fill:#fbddca;"/><path d="M118.531,109.65l30.662,0c0.568,0 1.112,0.225 1.514,0.627c0.401,0.401 0.627,0.946 0.627,1.513c0,1.777 0,4.474 0,7.368c0,7.894 -6.399,14.293 -14.294,14.293l-3.373,0l0.014,0.087l-5.198,11.506c9.948,8.848 16.214,21.716 16.214,36.031c0,11.059 -3.74,21.254 -10.028,29.4l-29.661,-0.218l0,-71.098l13.523,-29.509Z" style="fill:#1b5680;"/><path d="M121.531,113.65l23.662,0c0.568,0 1.112,0.225 1.514,0.627c0.401,0.401 0.627,0.946 0.627,1.513c0,1.777 0.269,0.487 0,3.368c-0.507,5.426 -6.399,11.293 -14.294,11.293l-3.373,0l-6.184,16.593c10.346,7.054 16.214,19.716 16.214,34.031c0,11.059 -3.74,21.254 -10.028,29.4l-20.661,-0.218l0,-69.098l12.523,-27.509Z" style="fill:#fbddca;"/><rect x="100.47" y="208.939" width="80.183" height="43.702" style="fill:#1b5680;"/><rect x="105.008" y="213.298" width="70.398" height="33.877" style="fill:#dededd;"/><clipPath id="_clip2"><rect x="105.008" y="213.298" width="70.398" height="33.877"/></clipPath><g clip-path="url(#_clip2)"><rect x="98.008" y="213.298" width="70.398" height="33.877" style="fill:#fff;"/></g><g><path d="M210.294,137.91c-0.869,-2.212 -2.58,-3.988 -4.758,-4.938c-2.179,-0.95 -4.645,-0.996 -6.857,-0.128c-1.967,0.773 -4.065,1.596 -6.033,2.369c-2.212,0.868 -3.988,2.58 -4.938,4.758c-0.95,2.178 -0.996,4.645 -0.128,6.856c0.027,0.067 0.053,0.134 0.079,0.2c0.868,2.212 2.58,3.989 4.758,4.939c2.178,0.95 4.645,0.995 6.856,0.127c1.968,-0.772 4.066,-1.596 6.033,-2.368c2.212,-0.869 3.989,-2.58 4.939,-4.759c0.95,-2.178 0.996,-4.644 0.127,-6.856c-0.026,-0.067 -0.052,-0.133 -0.078,-0.2Z" style="fill:#1b5680;"/><path d="M206.056,139.18c-0.479,-1.219 -1.422,-2.198 -2.623,-2.722c-1.201,-0.524 -2.56,-0.549 -3.779,-0.07c-1.744,0.685 -3.729,1.464 -5.473,2.149c-1.219,0.478 -2.199,1.422 -2.722,2.622c-0.524,1.201 -0.549,2.56 -0.07,3.78c0.105,0.268 0.211,0.539 0.317,0.808c0.479,1.219 1.422,2.198 2.623,2.722c1.2,0.524 2.56,0.549 3.779,0.07c1.744,-0.684 3.729,-1.464 5.473,-2.148c1.219,-0.479 2.198,-1.422 2.722,-2.623c0.523,-1.201 0.549,-2.56 0.07,-3.779c-0.106,-0.269 -0.212,-0.54 -0.317,-0.809Z" style="fill:#fbddca;"/></g><g><path d="M212.262,115.581c-0.869,-2.212 -2.58,-3.989 -4.758,-4.939c-2.179,-0.95 -4.645,-0.996 -6.857,-0.127c-1.967,0.772 -4.065,1.596 -6.033,2.368c-2.212,0.869 -3.988,2.58 -4.938,4.758c-0.95,2.179 -0.996,4.645 -0.128,6.857c0.027,0.067 0.053,0.133 0.079,0.2c0.868,2.212 2.58,3.988 4.758,4.938c2.178,0.95 4.645,0.996 6.856,0.128c1.968,-0.773 4.066,-1.596 6.033,-2.369c2.212,-0.868 3.989,-2.58 4.939,-4.758c0.95,-2.178 0.996,-4.645 0.127,-6.857c-0.026,-0.066 -0.052,-0.133 -0.078,-0.199Z" style="fill:#1b5680;"/><path d="M208.024,116.851c-0.479,-1.22 -1.422,-2.199 -2.623,-2.722c-1.201,-0.524 -2.56,-0.549 -3.779,-0.071c-1.744,0.685 -3.729,1.464 -5.473,2.149c-1.219,0.479 -2.199,1.422 -2.722,2.623c-0.524,1.2 -0.549,2.56 -0.07,3.779c0.105,0.269 0.211,0.539 0.317,0.808c0.479,1.22 1.422,2.199 2.623,2.722c1.2,0.524 2.56,0.549 3.779,0.071c1.744,-0.685 3.729,-1.464 5.473,-2.149c1.219,-0.479 2.198,-1.422 2.722,-2.623c0.523,-1.2 0.549,-2.56 0.07,-3.779c-0.106,-0.269 -0.212,-0.539 -0.317,-0.808Z" style="fill:#fbddca;"/></g><g><path d="M213.281,95.773c-0.869,-2.212 -2.58,-3.989 -4.758,-4.939c-2.179,-0.95 -4.645,-0.996 -6.857,-0.127c-1.967,0.772 -4.065,1.596 -6.033,2.368c-2.212,0.869 -3.988,2.58 -4.938,4.758c-0.95,2.179 -0.996,4.645 -0.128,6.857c0.027,0.067 0.053,0.133 0.079,0.2c0.868,2.212 2.58,3.988 4.758,4.938c2.178,0.95 4.645,0.996 6.856,0.128c1.968,-0.773 4.066,-1.596 6.033,-2.369c2.212,-0.868 3.989,-2.58 4.939,-4.758c0.95,-2.178 0.996,-4.645 0.127,-6.857c-0.026,-0.066 -0.052,-0.133 -0.078,-0.199Z" style="fill:#1b5680;"/><path d="M209.043,97.043c-0.479,-1.22 -1.422,-2.199 -2.623,-2.722c-1.201,-0.524 -2.56,-0.549 -3.779,-0.071c-1.744,0.685 -3.729,1.464 -5.473,2.149c-1.219,0.479 -2.199,1.422 -2.722,2.623c-0.524,1.2 -0.549,2.56 -0.07,3.779c0.105,0.269 0.211,0.539 0.317,0.808c0.479,1.22 1.422,2.199 2.623,2.722c1.2,0.524 2.56,0.549 3.779,0.071c1.744,-0.685 3.729,-1.464 5.473,-2.149c1.219,-0.479 2.198,-1.422 2.722,-2.623c0.523,-1.2 0.549,-2.56 0.07,-3.779c-0.106,-0.269 -0.212,-0.539 -0.317,-0.808Z" style="fill:#fbddca;"/></g><g><path d="M31.097,165.88c0,4.141 -3.255,7.396 -7.396,7.396c-4.142,0 -7.396,-3.255 -7.396,-7.396c0,-4.142 3.254,-7.396 7.396,-7.396c4.141,0 7.396,3.254 7.396,7.396Z" style="fill:#1b5680;fill-rule:nonzero;"/><path d="M26.659,165.88c0,1.627 -1.331,2.958 -2.958,2.958c-1.627,0 -2.959,-1.331 -2.959,-2.958c0,-1.627 1.332,-2.959 2.959,-2.959c1.627,0 2.958,1.332 2.958,2.959Z" style="fill:#fa7186;fill-rule:nonzero;"/></g><g><path d="M264.025,48.625c0,4.142 -3.254,7.396 -7.396,7.396c-4.142,0 -7.396,-3.254 -7.396,-7.396c0,-4.142 3.254,-7.396 7.396,-7.396c4.142,0 7.396,3.254 7.396,7.396Z" style="fill:#1b5680;fill-rule:nonzero;"/><path d="M259.587,48.625c0,1.627 -1.331,2.959 -2.958,2.959c-1.627,0 -2.958,-1.332 -2.958,-2.959c0,-1.627 1.331,-2.958 2.958,-2.958c1.627,0 2.958,1.331 2.958,2.958Z" style="fill:#8ad47e;fill-rule:nonzero;"/></g><g><path d="M155.072,7.396c0,4.142 -3.254,7.396 -7.396,7.396c-4.142,0 -7.396,-3.254 -7.396,-7.396c0,-4.142 3.254,-7.396 7.396,-7.396c4.142,0 7.396,3.254 7.396,7.396Z" style="fill:#1b5680;fill-rule:nonzero;"/><path d="M150.634,7.396c0,1.627 -1.331,2.958 -2.958,2.958c-1.627,0 -2.958,-1.331 -2.958,-2.958c0,-1.627 1.331,-2.958 2.958,-2.958c1.627,0 2.958,1.331 2.958,2.958Z" style="fill:#fcc309;fill-rule:nonzero;"/></g><g><rect x="278.646" y="185.354" width="2.004" height="7.01" style="fill:#1b5680;"/><path d="M288.562,195.182l0,-1.986l-7.072,0l0,1.986l7.072,0Z" style="fill:#1b5680;"/><rect x="278.646" y="196.014" width="2.004" height="7.01" style="fill:#1b5680;"/><path d="M277.807,195.182l0,-1.986l-7.072,0l0,1.986l7.072,0Z" style="fill:#1b5680;"/></g><g><path d="M14.016,121.352l-1.404,-1.431l-5.003,4.91l1.404,1.43l5.003,-4.909Z" style="fill:#1b5680;"/><path d="M12.542,133.882l1.418,-1.392l-4.953,-5.047l-1.418,1.391l4.953,5.048Z" style="fill:#1b5680;"/><path d="M6.407,128.818l-1.404,-1.43l-5.003,4.909l1.404,1.431l5.003,-4.91Z" style="fill:#1b5680;"/><path d="M5.009,126.206l1.418,-1.392l-4.953,-5.047l-1.418,1.391l4.953,5.048Z" style="fill:#1b5680;"/></g><g><path d="M281.459,76.492l-1.404,-1.43l-5.003,4.909l1.403,1.431l5.004,-4.91Z" style="fill:#1b5680;"/><path d="M279.984,89.023l1.418,-1.392l-4.953,-5.047l-1.418,1.391l4.953,5.048Z" style="fill:#1b5680;"/><path d="M273.85,83.959l-1.404,-1.431l-5.003,4.91l1.403,1.43l5.004,-4.909Z" style="fill:#1b5680;"/><path d="M272.452,81.346l1.418,-1.391l-4.953,-5.048l-1.418,1.392l4.953,5.047Z" style="fill:#1b5680;"/></g></g></svg>