<?xml version="1.0" encoding="iso-8859-1"?>
<!-- Generator: Adobe Illustrator 19.0.0, SVG Export Plug-In . SVG Version: 6.00 Build 0)  -->
<svg version="1.1" id="Layer_1" xmlns="http://www.w3.org/2000/svg" xmlns:xlink="http://www.w3.org/1999/xlink" x="0px" y="0px"
	 viewBox="0 0 512 512" style="enable-background:new 0 0 512 512;" xml:space="preserve">
<path style="fill:#1E0478;" d="M510.569,264.533c0.962,2.611,1.432,5.291,1.432,7.926c0,9.311-5.727,18.084-14.969,21.509
	L212.124,399.37c-2.588,0.962-5.28,1.432-7.96,1.432c-3.264,0-6.517-0.699-9.563-2.107c-5.555-2.554-9.792-7.124-11.911-12.862
	l-58.434-157.938c-2.119-5.738-1.878-11.957,0.676-17.512c2.554-5.566,7.124-9.792,12.862-11.923L422.712,93.057
	c5.738-2.119,11.957-1.878,17.512,0.676c5.566,2.554,9.792,7.124,11.911,12.862L510.569,264.533z M484.971,261.326l-50.703-137.013
	l-69.463,99.321L484.971,261.326z M224.86,370.233l243.539-90.101l-117.371-36.81l-18.13,25.941c-2.176,3.104-5.704,4.89-9.392,4.89
	c-0.939,0-1.901-0.126-2.852-0.366l-30.637-7.88L224.86,370.233z M318.672,249.621l88.372-126.339l-237.697,87.937L318.672,249.621z
	 M200.041,366.728l66.703-106.811l-117.383-30.19L200.041,366.728z"/>
<g>
	<polygon style="fill:#6F7CCD;" points="434.268,124.312 484.971,261.326 364.805,223.634 	"/>
	<path style="fill:#6F7CCD;" d="M468.399,280.132L224.86,370.233l65.157-104.326l30.637,7.88c0.951,0.241,1.913,0.367,2.852,0.367
		c3.688,0,7.215-1.787,9.392-4.89l18.13-25.941L468.399,280.132z"/>
</g>
<polygon style="fill:#9B8CCC;" points="407.044,123.282 318.672,249.621 169.347,211.218 "/>
<polygon style="fill:#6F7CCD;" points="266.744,259.917 200.041,366.728 149.361,229.727 "/>
<g>
	<path style="fill:#1E0478;" d="M133.441,388.97c2.199,5.933-0.836,12.518-6.769,14.717l-43.155,15.966
		c-1.317,0.481-2.657,0.722-3.974,0.722c-4.661,0-9.036-2.863-10.743-7.49c-2.199-5.933,0.836-12.518,6.769-14.717l43.155-15.966
		C124.657,380.014,131.242,383.038,133.441,388.97z"/>
	<path style="fill:#1E0478;" d="M75.019,282.64c2.199,5.933-0.836,12.53-6.757,14.717l-26.651,9.861
		c-1.306,0.481-2.646,0.71-3.974,0.71c-4.65,0-9.025-2.852-10.743-7.479c-2.188-5.933,0.836-12.518,6.769-14.717l26.651-9.861
		C66.235,273.684,72.832,276.707,75.019,282.64z"/>
	<path style="fill:#1E0478;" d="M42,369.408c2.188,5.933-0.836,12.518-6.769,14.706l-19.802,7.33
		c-1.306,0.481-2.646,0.71-3.974,0.71c-4.65,0-9.025-2.852-10.743-7.479c-2.188-5.933,0.836-12.518,6.769-14.717l19.802-7.319
		C33.215,360.441,39.801,363.476,42,369.408z"/>
</g>
<g>
</g>
<g>
</g>
<g>
</g>
<g>
</g>
<g>
</g>
<g>
</g>
<g>
</g>
<g>
</g>
<g>
</g>
<g>
</g>
<g>
</g>
<g>
</g>
<g>
</g>
<g>
</g>
<g>
</g>
</svg>
