<svg height="511pt" viewBox="-47 0 511 511.72" width="511pt" xmlns="http://www.w3.org/2000/svg"><path d="m137.414062 447.152344c-1.023437 0-2.046874-.390625-2.828124-1.167969-1.5625-1.558594-1.5625-4.097656 0-5.65625l25.734374-25.742187c3.925782-3.929688 8.496094-7.035157 13.574219-9.242188l50.203125-21.816406c13.015625-5.65625 24.160156-14.816406 32.222656-26.488282l72.742188-105.214843c1.257812-1.832031 3.753906-2.28125 5.5625-1.015625 1.824219 1.253906 2.269531 3.742187 1.015625 5.558594l-72.746094 105.21875c-8.910156 12.902343-21.230469 23.023437-35.613281 29.269531l-50.203125 21.816406c-4.15625 1.808594-7.894531 4.351563-11.109375 7.558594l-25.738281 25.746093c-.765625.785157-1.789063 1.175782-2.816407 1.175782zm0 0" fill="#263238"/><path d="m204.160156 328.542969c-5.566406 0-11.097656-1.054688-16.328125-3.152344l-13.574219-5.429687c-10.914062-4.367188-19.472656-12.722657-24.105468-23.519532l-17.472656-40.769531c-.871094-2.023437.074218-4.375 2.105468-5.246094 2.007813-.890625 4.375.0625 5.246094 2.101563l17.472656 40.769531c3.792969 8.832031 10.792969 15.671875 19.71875 19.238281l13.578125 5.433594c6.503907 2.605469 13.558594 3.253906 20.429688 1.878906l14.226562-2.839844c8.183594-1.640624 15.597657-6.113281 20.871094-12.601562l42.917969-52.820312c1.394531-1.714844 3.90625-1.96875 5.625-.585938 1.714844 1.390625 1.976562 3.910156.578125 5.632812l-42.921875 52.824219c-6.4375 7.925781-15.503906 13.398438-25.511719 15.398438l-14.214844 2.839843c-2.863281.5625-5.761719.847657-8.640625.847657zm0 0" fill="#263238"/><path d="m72.359375 382.097656c-1.023437 0-2.046875-.394531-2.832031-1.167968-1.558594-1.5625-1.558594-4.097657 0-5.65625l20.015625-20.015626c11.847656-11.851562 17.738281-28.21875 16.152343-44.90625l-5.320312-55.863281c-.207031-2.199219 1.402344-4.152343 3.601562-4.359375 2.207032-.296875 4.152344 1.398438 4.359376 3.597656l5.320312 55.867188c1.816406 19.070312-4.914062 37.78125-18.457031 51.316406l-20.015625 20.019532c-.777344.773437-1.800782 1.167968-2.824219 1.167968zm0 0" fill="#263238"/><path d="m10.136719 423.351562 82.023437 82.023438c3.128906 3.128906 8.191406 3.128906 11.3125 0l31.113282-31.109375c3.125-3.128906 3.125-8.195313 0-11.3125l-82.027344-82.03125c-3.125-3.128906-8.191406-3.128906-11.3125 0l-31.109375 31.109375c-3.128907 3.128906-3.128907 8.191406 0 11.320312zm0 0" fill="#40c4ff"/><g fill="#263238"><path d="m97.816406 511.71875c-3.207031 0-6.222656-1.246094-8.488281-3.511719l-82.023437-82.03125c-4.664063-4.679687-4.664063-12.289062 0-16.96875l31.121093-31.109375c4.535157-4.539062 12.445313-4.53125 16.972657 0l82.015624 82.023438c4.675782 4.679687 4.675782 12.292968 0 16.96875l-31.109374 31.109375c-2.273438 2.265625-5.28125 3.519531-8.488282 3.519531zm-84.855468-91.199219 82.023437 82.023438c1.511719 1.511719 4.144531 1.511719 5.65625 0l31.113281-31.109375c1.558594-1.5625 1.558594-4.097656 0-5.65625l-82.027344-82.023438c-1.503906-1.515625-4.132812-1.507812-5.65625 0l-31.109374 31.109375c-1.554688 1.5625-1.554688 4.097657 0 5.65625zm0 0"/><path d="m404.359375 242.097656h-392c-6.617187 0-12-5.386718-12-12v-16c0-6.617187 5.382813-12 12-12h392c6.617187 0 12 5.382813 12 12v16c0 6.613282-5.382813 12-12 12zm-392-32c-2.207031 0-4 1.789063-4 4v16c0 2.207032 1.792969 4 4 4h392c2.199219 0 4-1.792968 4-4v-16c0-2.210937-1.800781-4-4-4zm0 0"/><path d="m209.441406 310.921875c-.890625 0-1.777344-.296875-2.519531-.898437-1.714844-1.390626-1.976563-3.910157-.585937-5.632813l42.921874-52.824219c1.390626-1.710937 3.910157-1.964844 5.621094-.582031 1.714844 1.390625 1.976563 3.910156.578125 5.632813l-42.914062 52.824218c-.789063.972656-1.941407 1.480469-3.101563 1.480469zm0 0"/><path d="m372.359375 423.71875h-8c-2.207031 0-4-1.789062-4-4 0-2.207031 1.792969-4 4-4h8c2.207031 0 4 1.792969 4 4 0 2.210938-1.792969 4-4 4zm0 0"/><path d="m348.359375 423.71875h-88c-2.207031 0-4-1.789062-4-4 0-2.207031 1.792969-4 4-4h88c2.207031 0 4 1.792969 4 4 0 2.210938-1.792969 4-4 4zm0 0"/><path d="m332.359375 447.71875h-104c-2.207031 0-4-1.789062-4-4 0-2.207031 1.792969-4 4-4h104c2.207031 0 4 1.792969 4 4 0 2.210938-1.792969 4-4 4zm0 0"/><path d="m354.359375 71.71875c-1.71875 0-3.246094-1.101562-3.800781-2.734375l-4.414063-13.265625c-1.839843-5.535156-6.242187-9.933594-11.785156-11.773438l-13.261719-4.433593c-1.632812-.542969-2.738281-2.070313-2.738281-3.792969 0-1.71875 1.105469-3.246094 2.738281-3.789062l13.261719-4.425782c5.535156-1.839844 9.9375-6.246094 11.785156-11.785156l4.421875-13.269531c1.097656-3.265625 6.496094-3.265625 7.59375 0l4.414063 13.269531c1.839843 5.539062 6.242187 9.9375 11.785156 11.777344l13.265625 4.425781c1.632812.542969 2.734375 2.070313 2.734375 3.796875 0 1.730469-1.101563 3.25-2.734375 3.792969l-13.265625 4.425781c-5.535156 1.839844-9.933594 6.246094-11.785156 11.773438l-4.421875 13.273437c-.542969 1.632813-2.074219 2.734375-3.792969 2.734375zm-19.359375-36 1.886719.632812c7.914062 2.632813 14.210937 8.929688 16.839843 16.839844l.625 1.878906.625-1.878906c2.632813-7.902344 8.925782-14.199218 16.839844-16.839844l1.902344-.632812-1.886719-.628906c-7.902343-2.632813-14.199219-8.929688-16.839843-16.832032l-.632813-1.890624-.625 1.878906c-2.636719 7.914062-8.933594 14.203125-16.839844 16.84375zm0 0"/></g><path d="m304.359375 70.097656c0-4.417968-3.582031-8-8-8h-240c-4.414063 0-8 3.582032-8 8v128c0 4.414063 3.585937 8 8 8h240c4.417969 0 8-3.585937 8-8zm0 0" fill="#4db6ac"/><path d="m296.359375 210.097656h-240c-6.617187 0-12-5.386718-12-12v-128c0-6.617187 5.382813-12 12-12h240c6.617187 0 12 5.382813 12 12v128c0 6.613282-5.382813 12-12 12zm-240-144c-2.207031 0-4 1.789063-4 4v128c0 2.207032 1.792969 4 4 4h240c2.199219 0 4-1.792968 4-4v-128c0-2.210937-1.800781-4-4-4zm0 0" fill="#263238"/><path d="m320.359375 206.097656h40c4.417969 0 8-3.585937 8-8v-16c0-4.417968-3.582031-8-8-8h-40" fill="#ffd740"/><path d="m360.359375 210.097656h-40c-2.207031 0-4-1.792968-4-4 0-2.210937 1.792969-4 4-4h40c2.199219 0 4-1.792968 4-4v-16c0-2.210937-1.800781-4-4-4h-40c-2.207031 0-4-1.792968-4-4 0-2.210937 1.792969-4 4-4h40c6.617187 0 12 5.382813 12 12v16c0 6.613282-5.382813 12-12 12zm0 0" fill="#263238"/><path d="m320.359375 174.097656h40c4.417969 0 8-3.585937 8-8v-16c0-4.417968-3.582031-8-8-8h-40" fill="#ffd740"/><path d="m360.359375 178.097656h-40c-2.207031 0-4-1.792968-4-4 0-2.210937 1.792969-4 4-4h40c2.199219 0 4-1.792968 4-4v-16c0-2.210937-1.800781-4-4-4h-40c-2.207031 0-4-1.792968-4-4 0-2.210937 1.792969-4 4-4h40c6.617187 0 12 5.382813 12 12v16c0 6.613282-5.382813 12-12 12zm0 0" fill="#263238"/><path d="m320.359375 142.097656h40c4.417969 0 8-3.585937 8-8v-16c0-4.417968-3.582031-8-8-8h-40" fill="#ffd740"/><path d="m360.359375 146.097656h-40c-2.207031 0-4-1.792968-4-4 0-2.210937 1.792969-4 4-4h40c2.199219 0 4-1.792968 4-4v-16c0-2.210937-1.800781-4-4-4h-40c-2.207031 0-4-1.792968-4-4 0-2.210937 1.792969-4 4-4h40c6.617187 0 12 5.382813 12 12v16c0 6.613282-5.382813 12-12 12zm0 0" fill="#263238"/><path d="m224.359375 134.097656c0 26.507813-21.488281 48-48 48-26.507813 0-48-21.492187-48-48 0-26.511718 21.492187-48 48-48 26.511719 0 48 21.488282 48 48zm0 0" fill="#fff"/><path d="m176.359375 186.097656c-28.671875 0-52-23.328125-52-52s23.328125-52 52-52 52 23.328125 52 52-23.328125 52-52 52zm0-96c-24.261719 0-44 19.734375-44 44 0 24.261719 19.738281 44 44 44 24.265625 0 44-19.738281 44-44 0-24.265625-19.734375-44-44-44zm0 0" fill="#263238"/><path d="m182.359375 158.097656h-22c-2.207031 0-4-1.792968-4-4 0-2.210937 1.792969-4 4-4h22c3.3125 0 6-2.691406 6-6 0-3.3125-2.6875-6-6-6h-12c-7.71875 0-14-6.28125-14-14 0-7.722656 6.28125-14 14-14h18c2.207031 0 4 1.789063 4 4 0 2.207032-1.792969 4-4 4h-18c-3.3125 0-6 2.6875-6 6 0 3.308594 2.6875 6 6 6h12c7.71875 0 14 6.277344 14 14 0 7.71875-6.28125 14-14 14zm0 0" fill="#263238"/><path d="m176.359375 118.097656c-2.207031 0-4-1.792968-4-4v-12c0-2.210937 1.792969-4 4-4s4 1.789063 4 4v12c0 2.214844-1.792969 4-4 4zm0 0" fill="#263238"/><path d="m176.359375 170.097656c-2.207031 0-4-1.792968-4-4v-12c0-2.210937 1.792969-4 4-4s4 1.789063 4 4v12c0 2.214844-1.792969 4-4 4zm0 0" fill="#263238"/><path d="m253.847656 186.097656h-154.976562c-1.542969 0-2.941406-.890625-3.605469-2.28125-5.785156-12.113281-15.851563-21.433594-28.335937-26.222656-1.554688-.59375-2.570313-2.082031-2.570313-3.738281v-39.519531c0-1.65625 1.015625-3.144532 2.570313-3.734376 12.496093-4.800781 22.558593-14.121093 28.34375-26.234374.664062-1.390626 2.0625-2.277344 3.605468-2.277344h154.96875c1.535156 0 2.945313.886718 3.609375 2.277344 5.78125 12.121093 15.839844 21.433593 28.34375 26.234374 1.535157.589844 2.558594 2.078126 2.558594 3.734376v39.519531c0 1.65625-1.023437 3.144531-2.558594 3.738281-12.496093 4.796875-22.5625 14.117188-28.34375 26.222656-.664062 1.390625-2.074219 2.28125-3.609375 2.28125zm-152.503906-8h150.03125c6.378906-12.042968 16.527344-21.472656 28.984375-26.921875v-34.160156c-12.457031-5.449219-22.605469-14.878906-28.984375-26.917969h-150.03125c-6.375 12.039063-16.527344 21.476563-28.984375 26.917969v34.160156c12.449219 5.449219 22.609375 14.878907 28.984375 26.921875zm0 0" fill="#263238"/></svg>