<?xml version="1.0" encoding="iso-8859-1"?>
<!-- Generator: Adobe Illustrator 19.0.0, SVG Export Plug-In . SVG Version: 6.00 Build 0)  -->
<svg xmlns="http://www.w3.org/2000/svg" xmlns:xlink="http://www.w3.org/1999/xlink" version="1.1" id="Capa_1" x="0px" y="0px" viewBox="0 0 512 512" style="enable-background:new 0 0 512 512;" xml:space="preserve" width="512" height="512">
<g>
	<path d="M368.785,260.55c1.476,1.945,3.715,2.969,5.982,2.969c1.578,0,3.17-0.497,4.525-1.524   c3.301-2.502,3.948-7.207,1.445-10.508c-9.16-12.082-19.999-22.759-32.215-31.733c-3.339-2.452-8.032-1.734-10.484,1.604   c-2.453,3.338-1.734,8.033,1.604,10.485C350.693,239.962,360.499,249.62,368.785,260.55z"/>
	<path d="M323.412,470.28c-20.553,11.165-43.863,17.066-67.412,17.066c-23.718,0-47.177-5.982-67.841-17.3   c-3.632-1.988-8.19-0.658-10.181,2.976c-1.989,3.633-0.657,8.191,2.976,10.181c22.866,12.524,48.816,19.144,75.046,19.144   c26.042,0,51.829-6.531,74.572-18.886c3.64-1.977,4.987-6.531,3.011-10.17C331.604,469.65,327.054,468.303,323.412,470.28z"/>
	<path d="M163.476,219.755c-12.117,8.902-22.88,19.479-31.99,31.439c-2.511,3.295-1.874,8.001,1.421,10.511   c1.357,1.034,2.955,1.534,4.539,1.534c2.261,0,4.496-1.019,5.972-2.956c8.241-10.819,17.979-20.388,28.939-28.44   c3.338-2.453,4.057-7.146,1.604-10.485C171.508,218.022,166.816,217.303,163.476,219.755z"/>
	<path d="M322.092,316.854H287.75v-34.341c0-7.393-6.015-13.408-13.407-13.408h-36.686c-7.393,0-13.407,6.015-13.407,13.408v1.64   c0,4.142,3.357,7.5,7.5,7.5s7.5-3.358,7.5-7.5v-0.048h33.5v34.341c0,7.393,6.015,13.408,13.407,13.408h34.342v33.5h-34.342   c-7.393,0-13.407,6.015-13.407,13.407v34.341h-33.5v-34.341c0-7.393-6.015-13.407-13.407-13.407h-34.342v-33.5h34.342   c7.393,0,13.407-6.015,13.407-13.408v-4.293c0-4.142-3.357-7.5-7.5-7.5s-7.5,3.358-7.5,7.5v2.701h-34.342   c-7.393,0-13.407,6.015-13.407,13.407v36.685c0,7.393,6.015,13.408,13.407,13.408h34.342v34.341   c0,7.393,6.015,13.407,13.407,13.407h36.686c7.393,0,13.407-6.015,13.407-13.407v-34.341h34.342   c7.393,0,13.407-6.015,13.407-13.408v-36.685C335.499,322.869,329.484,316.854,322.092,316.854z"/>
	<path d="M111.538,407.785H99.21H88.792H76.463c-28.191,0-51.127,22.936-51.127,51.128V504.5c0,4.142,3.357,7.5,7.5,7.5   s7.5-3.358,7.5-7.5v-45.587c0-19.921,16.206-36.128,36.127-36.128h2.305l-11.571,39.331c-0.766,2.602-0.066,5.415,1.829,7.356   l19.609,20.084c1.411,1.445,3.346,2.26,5.366,2.26s3.955-0.815,5.366-2.26l19.609-20.084c1.896-1.941,2.595-4.754,1.829-7.356   l-11.571-39.331h2.304c19.921,0,36.128,16.207,36.128,36.128V504.5c0,4.142,3.357,7.5,7.5,7.5s7.5-3.358,7.5-7.5v-45.587   C162.666,430.721,139.73,407.785,111.538,407.785z M94.001,473.58l-11.175-11.445l11.175-37.983l11.175,37.983L94.001,473.58z"/>
	<path d="M94.001,403.838c31.597,0,57.302-25.706,57.302-57.302v-14.61v-9.401c0-1.021-0.029-2.036-0.082-3.044   c-0.012-0.229-0.037-0.456-0.052-0.684c-0.051-0.787-0.108-1.572-0.191-2.35c-0.026-0.239-0.063-0.475-0.091-0.714   c-0.091-0.768-0.19-1.533-0.311-2.292c-0.038-0.236-0.085-0.469-0.126-0.705c-0.131-0.755-0.27-1.508-0.43-2.253   c-0.052-0.245-0.113-0.487-0.169-0.731c-0.166-0.727-0.341-1.45-0.535-2.166c-0.071-0.264-0.149-0.525-0.224-0.788   c-0.196-0.684-0.4-1.363-0.62-2.037c-0.095-0.292-0.196-0.583-0.296-0.874c-0.217-0.629-0.443-1.253-0.681-1.871   c-0.125-0.327-0.254-0.653-0.386-0.977c-0.229-0.563-0.466-1.121-0.712-1.674c-0.163-0.368-0.327-0.735-0.498-1.099   c-0.229-0.488-0.468-0.97-0.71-1.45c-0.208-0.414-0.416-0.828-0.635-1.237c-0.214-0.401-0.439-0.795-0.663-1.19   c-0.265-0.469-0.527-0.938-0.805-1.399c-0.17-0.282-0.351-0.557-0.526-0.835c-1.734-2.768-3.707-5.394-5.91-7.849   c-0.103-0.114-0.201-0.232-0.304-0.345c-0.465-0.51-0.946-1.006-1.431-1.5c-0.199-0.203-0.396-0.409-0.599-0.61   c-0.443-0.439-0.898-0.868-1.357-1.294c-0.266-0.247-0.532-0.493-0.802-0.734c-0.214-0.191-0.417-0.392-0.634-0.58   c-0.077-0.072-0.156-0.143-0.237-0.212c-0.256-0.219-0.522-0.425-0.781-0.64c-0.061-0.05-0.122-0.1-0.183-0.15   c-0.612-0.502-1.233-0.991-1.864-1.466c-0.135-0.102-0.271-0.203-0.407-0.304c-0.552-0.409-1.112-0.806-1.677-1.194   c-0.216-0.148-0.432-0.296-0.649-0.441c-0.48-0.319-0.965-0.629-1.454-0.933c-0.306-0.191-0.611-0.383-0.921-0.568   c-0.386-0.23-0.777-0.452-1.168-0.672c-0.413-0.235-0.825-0.47-1.245-0.694c-0.245-0.131-0.495-0.253-0.742-0.381   c-3.496-1.805-7.197-3.261-11.064-4.321c-0.032-0.009-0.064-0.019-0.097-0.027c-0.708-0.193-1.422-0.368-2.14-0.534   c-0.157-0.037-0.314-0.074-0.472-0.109c-0.64-0.142-1.284-0.272-1.932-0.392c-0.255-0.048-0.51-0.093-0.766-0.137   c-0.578-0.099-1.158-0.192-1.741-0.274c-0.354-0.05-0.71-0.092-1.066-0.136c-0.505-0.061-1.01-0.123-1.519-0.17   c-0.495-0.047-0.993-0.079-1.49-0.114c-0.391-0.026-0.779-0.06-1.171-0.079c-0.91-0.044-1.821-0.069-2.735-0.069   c-9.105,0-18.17,2.191-26.215,6.336c-3.682,1.897-5.129,6.42-3.231,10.103s6.421,5.128,10.103,3.231   c6.014-3.099,12.522-4.67,19.344-4.67c0.675,0,1.345,0.02,2.012,0.051c0.286,0.014,0.571,0.038,0.856,0.057   c0.366,0.025,0.732,0.05,1.095,0.083c0.375,0.036,0.748,0.079,1.12,0.125c0.257,0.031,0.514,0.063,0.77,0.098   c0.434,0.061,0.867,0.128,1.299,0.203c0.173,0.03,0.346,0.061,0.518,0.093c0.492,0.091,0.982,0.188,1.47,0.296   c0.079,0.017,0.156,0.036,0.235,0.054c3.468,0.791,6.824,2.02,9.989,3.651c0.115,0.06,0.232,0.117,0.347,0.178   c0.389,0.205,0.772,0.42,1.155,0.638c0.204,0.116,0.409,0.232,0.612,0.352c0.314,0.185,0.625,0.377,0.935,0.571   c0.272,0.171,0.543,0.344,0.811,0.52c0.246,0.162,0.491,0.326,0.734,0.494c0.335,0.232,0.667,0.468,0.996,0.709   c0.177,0.129,0.353,0.258,0.528,0.39c0.404,0.306,0.801,0.619,1.193,0.938c0.1,0.082,0.202,0.161,0.302,0.244   c0.318,0.264,0.627,0.539,0.937,0.812c0.316,0.278,0.627,0.56,0.934,0.846c0.242,0.226,0.483,0.454,0.72,0.686   c0.271,0.265,0.536,0.535,0.799,0.806c0.248,0.256,0.497,0.512,0.739,0.775c0.239,0.259,0.469,0.525,0.701,0.789   c0.245,0.28,0.493,0.558,0.731,0.844c0.221,0.265,0.431,0.538,0.644,0.809c0.231,0.292,0.467,0.579,0.69,0.877   c0.397,0.531,0.781,1.07,1.153,1.618c0.165,0.242,0.318,0.492,0.478,0.738c0.25,0.386,0.502,0.771,0.739,1.165   c0.138,0.228,0.266,0.463,0.4,0.694c0.233,0.405,0.466,0.809,0.686,1.221c0.117,0.219,0.227,0.443,0.34,0.664   c0.223,0.437,0.443,0.876,0.651,1.32c0.096,0.205,0.188,0.412,0.28,0.619c0.212,0.472,0.417,0.948,0.612,1.427   c0.077,0.19,0.151,0.38,0.226,0.571c0.196,0.505,0.383,1.015,0.56,1.527c0.061,0.177,0.122,0.354,0.18,0.532   c0.175,0.532,0.339,1.069,0.493,1.608c0.048,0.168,0.098,0.336,0.144,0.505c0.15,0.552,0.287,1.109,0.415,1.667   c0.038,0.165,0.078,0.328,0.114,0.494c0.122,0.565,0.228,1.134,0.327,1.704c0.029,0.166,0.062,0.33,0.089,0.496   c0.092,0.57,0.166,1.144,0.235,1.718c0.021,0.172,0.047,0.342,0.066,0.514c0.062,0.579,0.104,1.161,0.143,1.744   c0.011,0.17,0.03,0.338,0.039,0.508c0.04,0.749,0.062,1.501,0.062,2.255v0.036c-7.197-2.6-13.416-7.499-17.708-14.111   c-1.269-1.955-3.374-3.209-5.697-3.394c-2.325-0.185-4.6,0.721-6.162,2.452c-9.845,10.91-23.903,17.167-38.569,17.167   c-5.65,0-11.166-0.897-16.457-2.67c0.001-0.099,0.004-0.198,0.006-0.296c0.014-0.714,0.041-1.429,0.091-2.141   c0.003-0.04,0.004-0.079,0.007-0.119c0.059-0.808,0.142-1.614,0.247-2.417c0.006-0.045,0.012-0.09,0.018-0.135   c0.667-4.974,2.208-9.811,4.558-14.223c1.946-3.656,0.562-8.198-3.095-10.145c-3.655-1.946-8.199-0.561-10.146,3.095   c-1.568,2.944-2.859,6.031-3.886,9.204c-0.056,0.145-0.115,0.287-0.163,0.437c-1.054,3.339-1.789,6.766-2.214,10.245   c-0.001,0.007-0.002,0.014-0.003,0.021c-0.132,1.081-0.23,2.168-0.301,3.258c-0.012,0.177-0.02,0.354-0.03,0.532   c-0.059,1.065-0.099,2.132-0.099,3.204v4.604v19.407C36.699,378.133,62.404,403.838,94.001,403.838z M51.699,337.614   c5.353,1.361,10.857,2.062,16.467,2.062c15.95,0,31.341-5.739,43.38-15.976c6.677,7.149,15.249,12.183,24.757,14.513v8.324   c0,23.325-18.977,42.302-42.302,42.302s-42.302-18.977-42.302-42.302V337.614z"/>
	<path d="M194.835,246.776c4.143,0,7.5-3.358,7.5-7.5v-45.588c0-19.921,16.206-36.128,36.127-36.128h2.305l-11.571,39.331   c-0.766,2.602-0.066,5.415,1.829,7.356l19.609,20.084c1.411,1.445,3.346,2.26,5.366,2.26s3.955-0.815,5.366-2.26l19.609-20.084   c1.896-1.941,2.595-4.754,1.829-7.356l-11.571-39.331h2.305c19.921,0,36.127,16.207,36.127,36.128v45.588   c0,4.142,3.357,7.5,7.5,7.5s7.5-3.358,7.5-7.5v-45.588c0-28.192-22.936-51.128-51.127-51.128h-12.329h-10.418h-12.329   c-28.191,0-51.127,22.936-51.127,51.128v45.588C187.335,243.418,190.692,246.776,194.835,246.776z M256,208.355l-11.175-11.445   L256,158.928l11.175,37.983L256,208.355z"/>
	<path d="M256,138.614c31.597,0,57.302-25.706,57.302-57.302v-14.61v-9.401c0-1.021-0.029-2.036-0.082-3.044   c-0.012-0.229-0.037-0.455-0.052-0.683c-0.051-0.787-0.109-1.573-0.191-2.351c-0.025-0.238-0.062-0.474-0.091-0.712   c-0.091-0.769-0.19-1.535-0.312-2.294c-0.038-0.235-0.085-0.467-0.125-0.702c-0.131-0.757-0.271-1.511-0.431-2.258   c-0.052-0.242-0.112-0.482-0.167-0.724c-0.167-0.729-0.343-1.455-0.537-2.174c-0.071-0.262-0.148-0.521-0.222-0.782   c-0.196-0.686-0.401-1.368-0.622-2.043c-0.095-0.291-0.195-0.579-0.294-0.868c-0.217-0.63-0.444-1.256-0.682-1.876   c-0.125-0.326-0.254-0.651-0.385-0.975c-0.229-0.564-0.467-1.122-0.713-1.677c-0.162-0.367-0.326-0.733-0.497-1.097   c-0.229-0.489-0.469-0.971-0.711-1.453c-0.208-0.413-0.416-0.827-0.634-1.235c-0.215-0.401-0.44-0.796-0.664-1.191   c-0.265-0.469-0.527-0.938-0.805-1.399c-0.169-0.28-0.349-0.553-0.523-0.831c-1.74-2.778-3.721-5.414-5.934-7.877   c-0.094-0.104-0.184-0.212-0.278-0.316c-0.471-0.517-0.959-1.021-1.451-1.522c-0.192-0.196-0.381-0.394-0.575-0.586   c-0.451-0.446-0.913-0.882-1.379-1.315c-0.257-0.239-0.515-0.476-0.776-0.71c-0.218-0.195-0.425-0.4-0.646-0.592   c-0.077-0.072-0.156-0.142-0.236-0.211c-0.259-0.222-0.528-0.43-0.791-0.647c-0.053-0.044-0.107-0.087-0.16-0.131   c-0.619-0.508-1.248-1.003-1.886-1.483c-0.129-0.097-0.259-0.194-0.389-0.29c-0.558-0.413-1.124-0.815-1.696-1.207   c-0.21-0.145-0.421-0.289-0.634-0.431c-0.485-0.323-0.976-0.636-1.469-0.943c-0.302-0.188-0.602-0.377-0.907-0.56   c-0.391-0.234-0.787-0.457-1.183-0.681c-0.409-0.232-0.816-0.465-1.231-0.686c-0.252-0.134-0.507-0.26-0.76-0.39   c-3.492-1.802-7.188-3.255-11.049-4.314c-0.032-0.009-0.064-0.019-0.097-0.027c-0.708-0.193-1.422-0.368-2.14-0.534   c-0.157-0.037-0.314-0.074-0.472-0.109c-0.64-0.142-1.284-0.272-1.932-0.392c-0.255-0.048-0.51-0.093-0.766-0.137   c-0.578-0.099-1.158-0.192-1.741-0.274c-0.354-0.05-0.71-0.092-1.066-0.136c-0.505-0.061-1.01-0.123-1.519-0.17   c-0.495-0.047-0.993-0.079-1.49-0.114c-0.391-0.026-0.779-0.06-1.171-0.079C257.826,0.026,256.914,0,256,0   c-9.104,0-18.17,2.191-26.215,6.336c-3.682,1.897-5.129,6.42-3.231,10.102s6.418,5.13,10.103,3.232   C242.67,16.571,249.179,15,256,15c0.675,0,1.345,0.02,2.012,0.051c0.285,0.014,0.57,0.038,0.854,0.057   c0.367,0.025,0.733,0.05,1.098,0.084c0.374,0.035,0.747,0.079,1.119,0.124c0.257,0.031,0.514,0.063,0.771,0.098   c0.434,0.061,0.866,0.128,1.297,0.202c0.174,0.03,0.348,0.061,0.521,0.093c0.491,0.091,0.98,0.187,1.467,0.295   c0.08,0.018,0.159,0.037,0.239,0.055c3.462,0.79,6.812,2.016,9.971,3.643c0.123,0.064,0.247,0.125,0.369,0.189   c0.382,0.202,0.76,0.414,1.136,0.627c0.211,0.12,0.423,0.24,0.632,0.364c0.307,0.181,0.611,0.369,0.914,0.558   c0.281,0.176,0.561,0.355,0.837,0.537c0.237,0.156,0.472,0.314,0.706,0.475c0.348,0.24,0.692,0.485,1.033,0.735   c0.164,0.12,0.329,0.24,0.491,0.363c0.42,0.317,0.833,0.643,1.24,0.975c0.084,0.069,0.17,0.136,0.254,0.206   c0.331,0.274,0.652,0.56,0.975,0.844c0.301,0.265,0.598,0.534,0.891,0.807c0.253,0.237,0.505,0.475,0.752,0.718   c0.26,0.255,0.514,0.514,0.767,0.774c0.257,0.265,0.514,0.53,0.764,0.801c0.229,0.249,0.451,0.504,0.674,0.758   c0.254,0.289,0.51,0.577,0.756,0.873c0.209,0.252,0.408,0.51,0.611,0.766c0.242,0.305,0.488,0.606,0.722,0.918   c0.332,0.443,0.648,0.895,0.962,1.35c0.233,0.338,0.458,0.682,0.682,1.027c0.244,0.377,0.49,0.753,0.722,1.137   c0.14,0.232,0.271,0.471,0.406,0.706c0.231,0.401,0.462,0.802,0.679,1.21c0.118,0.221,0.229,0.447,0.344,0.67   c0.222,0.435,0.441,0.872,0.648,1.314c0.097,0.206,0.189,0.415,0.282,0.623c0.211,0.471,0.416,0.945,0.61,1.424   c0.077,0.191,0.152,0.382,0.227,0.574c0.196,0.505,0.382,1.013,0.559,1.525c0.061,0.177,0.122,0.355,0.181,0.533   c0.175,0.532,0.339,1.068,0.493,1.608c0.048,0.168,0.098,0.336,0.144,0.506c0.15,0.552,0.287,1.109,0.415,1.667   c0.038,0.165,0.078,0.328,0.114,0.494c0.122,0.565,0.228,1.133,0.327,1.704c0.029,0.166,0.062,0.33,0.089,0.496   c0.092,0.57,0.166,1.144,0.235,1.718c0.021,0.172,0.047,0.342,0.066,0.514c0.062,0.579,0.104,1.161,0.143,1.744   c0.011,0.17,0.03,0.338,0.039,0.508c0.04,0.749,0.062,1.501,0.062,2.255v0.036c-7.197-2.601-13.416-7.499-17.708-14.111   c-1.269-1.955-3.374-3.209-5.697-3.394c-2.313-0.185-4.6,0.721-6.161,2.452c-9.847,10.91-23.904,17.167-38.57,17.167   c-5.65,0-11.166-0.897-16.457-2.671c0.001-0.099,0.004-0.198,0.006-0.297c0.014-0.712,0.041-1.423,0.091-2.133   c0.003-0.042,0.004-0.085,0.007-0.128c0.059-0.805,0.142-1.606,0.246-2.405c0.007-0.051,0.014-0.102,0.021-0.154   c0.667-4.971,2.208-9.804,4.556-14.212c1.946-3.656,0.562-8.198-3.095-10.145c-3.656-1.948-8.197-0.562-10.146,3.094   c-1.571,2.951-2.865,6.044-3.894,9.225c-0.053,0.139-0.11,0.274-0.155,0.418c-1.051,3.333-1.785,6.752-2.211,10.221   c-0.002,0.018-0.005,0.036-0.007,0.053c-0.131,1.077-0.229,2.159-0.3,3.244c-0.012,0.18-0.021,0.359-0.031,0.539   c-0.059,1.064-0.099,2.13-0.099,3.2v4.604v19.407C198.698,112.909,224.403,138.614,256,138.614z M213.698,72.39   c5.353,1.361,10.857,2.062,16.467,2.062c15.95,0,31.341-5.74,43.38-15.976c6.677,7.149,15.249,12.183,24.757,14.513v8.324   c0,23.325-18.977,42.302-42.302,42.302s-42.302-18.977-42.302-42.302V72.39z"/>
	<path d="M435.537,407.785h-12.329H412.79h-12.328c-28.192,0-51.128,22.936-51.128,51.128V504.5c0,4.142,3.357,7.5,7.5,7.5   s7.5-3.358,7.5-7.5v-45.587c0-19.921,16.207-36.128,36.128-36.128h2.304l-11.571,39.331c-0.766,2.602-0.066,5.415,1.829,7.356   l19.609,20.084c1.411,1.445,3.346,2.26,5.366,2.26s3.955-0.815,5.366-2.26l19.609-20.084c1.896-1.941,2.595-4.754,1.829-7.356   l-11.571-39.331h2.305c19.921,0,36.127,16.207,36.127,36.128V504.5c0,4.142,3.357,7.5,7.5,7.5s7.5-3.358,7.5-7.5v-45.587   C486.664,430.721,463.729,407.785,435.537,407.785z M417.999,473.58l-11.175-11.445l11.175-37.983l11.175,37.983L417.999,473.58z"/>
	<path d="M398.655,284.895c6.015-3.099,12.522-4.67,19.344-4.67c0.675,0,1.345,0.02,2.012,0.051   c0.287,0.014,0.572,0.038,0.858,0.057c0.366,0.025,0.731,0.05,1.094,0.083c0.375,0.036,0.748,0.079,1.121,0.125   c0.257,0.031,0.514,0.063,0.769,0.098c0.435,0.061,0.868,0.128,1.3,0.203c0.174,0.03,0.346,0.061,0.519,0.093   c0.491,0.091,0.981,0.188,1.468,0.296c0.081,0.018,0.162,0.038,0.242,0.056c3.469,0.792,6.825,2.022,9.99,3.655   c0.114,0.059,0.23,0.116,0.344,0.176c0.389,0.205,0.773,0.421,1.156,0.638c0.204,0.116,0.408,0.231,0.609,0.351   c0.314,0.185,0.625,0.377,0.934,0.571c0.273,0.171,0.544,0.344,0.812,0.521c0.246,0.161,0.489,0.325,0.732,0.492   c0.336,0.232,0.668,0.468,0.997,0.709c0.177,0.129,0.353,0.258,0.528,0.39c0.401,0.304,0.797,0.615,1.187,0.933   c0.103,0.083,0.207,0.165,0.308,0.25c0.328,0.272,0.647,0.555,0.967,0.837c0.295,0.26,0.587,0.524,0.874,0.792   c0.259,0.241,0.515,0.484,0.768,0.732c0.254,0.249,0.502,0.502,0.749,0.757c0.262,0.27,0.525,0.54,0.78,0.818   c0.223,0.243,0.439,0.491,0.656,0.738c0.26,0.295,0.521,0.589,0.772,0.891c0.2,0.241,0.391,0.49,0.586,0.735   c0.25,0.315,0.505,0.626,0.746,0.949c0.268,0.358,0.521,0.725,0.776,1.09c0.302,0.43,0.594,0.867,0.88,1.308   c0.238,0.368,0.478,0.734,0.704,1.109c0.143,0.237,0.276,0.48,0.415,0.72c0.229,0.396,0.457,0.793,0.672,1.196   c0.12,0.224,0.232,0.452,0.348,0.679c0.221,0.432,0.439,0.866,0.644,1.306c0.098,0.208,0.191,0.419,0.285,0.629   c0.21,0.469,0.414,0.941,0.607,1.417c0.078,0.193,0.154,0.386,0.229,0.581c0.195,0.503,0.381,1.009,0.556,1.519   c0.062,0.179,0.123,0.358,0.182,0.538c0.175,0.531,0.338,1.067,0.492,1.606c0.048,0.169,0.098,0.337,0.144,0.506   c0.151,0.552,0.287,1.109,0.415,1.667c0.038,0.165,0.078,0.328,0.114,0.494c0.122,0.565,0.228,1.133,0.327,1.704   c0.029,0.166,0.062,0.33,0.089,0.496c0.092,0.568,0.166,1.14,0.234,1.713c0.021,0.174,0.048,0.346,0.066,0.521   c0.062,0.578,0.104,1.159,0.142,1.74c0.011,0.171,0.03,0.339,0.039,0.51c0.04,0.749,0.062,1.501,0.062,2.255v0.036   c-7.197-2.6-13.416-7.499-17.707-14.111c-1.269-1.955-3.374-3.209-5.697-3.394c-2.313-0.185-4.6,0.721-6.161,2.452   c-9.847,10.91-23.905,17.167-38.571,17.167c-5.65,0-11.166-0.897-16.457-2.67c0.001-0.099,0.004-0.198,0.006-0.297   c0.014-0.713,0.041-1.425,0.091-2.135c0.003-0.042,0.004-0.084,0.007-0.125c0.059-0.805,0.142-1.608,0.246-2.408   c0.007-0.05,0.013-0.1,0.02-0.149c0.667-4.972,2.208-9.806,4.556-14.216c1.946-3.656,0.562-8.198-3.095-10.145   c-3.656-1.946-8.199-0.561-10.146,3.095c-1.57,2.948-2.863,6.038-3.891,9.217c-0.054,0.141-0.112,0.28-0.158,0.426   c-1.051,3.334-1.786,6.754-2.211,10.225c-0.002,0.016-0.005,0.032-0.007,0.049c-0.131,1.077-0.229,2.16-0.3,3.246   c-0.012,0.179-0.021,0.359-0.031,0.538c-0.059,1.064-0.099,2.13-0.099,3.2v4.604v19.407c0,31.596,25.705,57.302,57.302,57.302   s57.302-25.706,57.302-57.302v-14.61v-9.401c0-1.021-0.029-2.036-0.082-3.044c-0.012-0.23-0.038-0.458-0.052-0.687   c-0.051-0.786-0.108-1.57-0.191-2.347c-0.026-0.241-0.063-0.48-0.092-0.721c-0.091-0.765-0.189-1.528-0.31-2.283   c-0.039-0.242-0.087-0.481-0.129-0.722c-0.13-0.749-0.268-1.495-0.427-2.234c-0.054-0.252-0.116-0.501-0.174-0.752   c-0.165-0.719-0.338-1.434-0.529-2.143c-0.073-0.273-0.154-0.543-0.232-0.815c-0.193-0.674-0.395-1.345-0.612-2.009   c-0.098-0.301-0.202-0.6-0.305-0.899c-0.214-0.619-0.436-1.233-0.67-1.843c-0.129-0.337-0.262-0.672-0.398-1.007   c-0.224-0.551-0.457-1.097-0.698-1.64c-0.168-0.379-0.337-0.757-0.513-1.133c-0.223-0.475-0.456-0.944-0.692-1.412   c-0.214-0.426-0.428-0.852-0.653-1.272c-0.206-0.385-0.422-0.762-0.637-1.141c-0.274-0.485-0.546-0.971-0.833-1.448   c-0.155-0.255-0.318-0.504-0.477-0.756c-1.75-2.801-3.745-5.458-5.975-7.94c-0.093-0.103-0.181-0.209-0.274-0.311   c-0.473-0.519-0.962-1.024-1.456-1.527c-0.191-0.195-0.379-0.392-0.573-0.584c-0.451-0.447-0.913-0.883-1.38-1.316   c-0.258-0.24-0.517-0.478-0.78-0.713c-0.22-0.197-0.429-0.403-0.653-0.597c-0.072-0.067-0.146-0.134-0.223-0.199   c-0.256-0.219-0.522-0.425-0.781-0.64c-0.061-0.05-0.122-0.1-0.183-0.15c-0.612-0.502-1.233-0.991-1.864-1.466   c-0.135-0.102-0.271-0.203-0.407-0.304c-0.552-0.409-1.112-0.806-1.677-1.194c-0.216-0.148-0.432-0.296-0.649-0.441   c-0.48-0.319-0.965-0.629-1.454-0.933c-0.306-0.191-0.611-0.383-0.921-0.568c-0.386-0.23-0.777-0.452-1.168-0.672   c-0.413-0.235-0.825-0.47-1.245-0.694c-0.245-0.131-0.495-0.253-0.742-0.381c-3.496-1.805-7.197-3.261-11.064-4.321   c-0.032-0.009-0.064-0.019-0.097-0.027c-0.708-0.193-1.422-0.368-2.14-0.534c-0.157-0.037-0.314-0.074-0.472-0.109   c-0.64-0.142-1.284-0.272-1.932-0.392c-0.255-0.048-0.51-0.093-0.766-0.137c-0.578-0.099-1.158-0.192-1.741-0.274   c-0.354-0.05-0.71-0.092-1.066-0.136c-0.505-0.061-1.01-0.123-1.519-0.17c-0.495-0.047-0.993-0.079-1.49-0.114   c-0.391-0.026-0.779-0.06-1.171-0.079c-0.91-0.044-1.821-0.069-2.735-0.069c-9.104,0-18.169,2.191-26.215,6.336   c-3.682,1.897-5.129,6.42-3.231,10.102C390.449,285.345,394.97,286.793,398.655,284.895z M417.999,388.838   c-23.325,0-42.302-18.977-42.302-42.302v-8.923c5.353,1.361,10.857,2.062,16.467,2.062c15.95,0,31.341-5.739,43.381-15.976   c6.676,7.149,15.248,12.183,24.756,14.513v8.324C460.301,369.862,441.324,388.838,417.999,388.838z"/>
</g>















</svg>
