<?xml version="1.0" encoding="iso-8859-1"?>
<!-- Generator: Adobe Illustrator 19.0.0, SVG Export Plug-In . SVG Version: 6.00 Build 0)  -->
<svg version="1.1" id="Capa_1" xmlns="http://www.w3.org/2000/svg" xmlns:xlink="http://www.w3.org/1999/xlink" x="0px" y="0px"
	 viewBox="0 0 512 512" style="enable-background:new 0 0 512 512;" xml:space="preserve">
<g>
	<g transform="translate(1 1)">
		<path style="fill:#607D8B;" d="M219.245,295.446c-10.968-14.344-18.737-30.872-22.784-48.469
			c-1.242-6.329-4.33-12.149-8.875-16.725c-6.008-6.027-9.383-14.189-9.387-22.699v-30.293c0.005-4.979,1.174-9.889,3.413-14.336
			l1.707-3.584c2.239-4.447,3.408-9.357,3.413-14.336v-43.605c-0.013-8.753,1.698-17.423,5.035-25.515l-0.085-0.085h-44.032
			c-32.608,0.011-59.04,26.442-59.051,59.051v37.803c-0.017,4.291-1.009,8.522-2.901,12.373l-1.536,3.072
			c-1.931,3.837-2.925,8.078-2.901,12.373v26.283c-0.004,7.358,2.911,14.417,8.107,19.627c3.895,3.955,6.537,8.972,7.595,14.421
			c3.729,15.214,10.587,29.484,20.139,41.899c0.87,1.286,1.345,2.799,1.365,4.352v23.04c0.005,0.579-0.081,1.155-0.256,1.707
			c-0.352,1.962-1.577,3.657-3.328,4.608l-21.589,12.885l-60.672,36.352c-15.56,9.332-25.083,26.144-25.088,44.288v46.933h85.333
			V442.39c0.008-20.978,11.021-40.413,29.013-51.2l24.32-14.592l32-19.2l2.731-1.621l1.536-0.939l34.219-20.565
			c2.621-1.507,4.221-4.315,4.181-7.339v-26.539C220.852,298.617,220.286,296.888,219.245,295.446z"/>
		<path style="fill:#9D27B0;" d="M120.6,376.598L96.28,391.19c-17.992,10.787-29.006,30.222-29.013,51.2v34.475H7.533v-46.933
			c0.005-18.144,9.528-34.956,25.088-44.288l60.672-36.352L120.6,376.598z"/>
		<path style="fill:#FFFFFF;" d="M156.867,354.838l-1.536,0.939l-2.731,1.621l-32,19.2l-27.307-27.307l21.589-12.885
			c1.751-0.951,2.976-2.646,3.328-4.608h0.256L156.867,354.838z"/>
		<path style="fill:#37474F;" d="M502.467,429.931v46.933h-85.333V442.39c-0.008-20.978-11.021-40.413-29.013-51.2l-24.32-14.592
			l-32-19.2l-2.731-1.621l-1.536-0.939l-34.219-20.565c-2.621-1.507-4.221-4.315-4.181-7.339v-26.539
			c0.015-1.778,0.581-3.507,1.621-4.949c10.968-14.344,18.737-30.872,22.784-48.469c1.242-6.329,4.33-12.149,8.875-16.725
			c6.008-6.027,9.383-14.189,9.387-22.699v-30.293c-0.005-4.979-1.174-9.889-3.413-14.336l-1.707-3.584
			c-2.239-4.447-3.408-9.357-3.413-14.336v-43.605c0.013-8.753-1.698-17.423-5.035-25.515l0.085-0.085h44.032
			c32.608,0.011,59.04,26.442,59.051,59.051v37.803c0.017,4.291,1.009,8.522,2.901,12.373l1.536,3.072
			c1.931,3.837,2.925,8.078,2.901,12.373v26.283c0.004,7.358-2.911,14.417-8.107,19.627c-3.895,3.955-6.537,8.972-7.595,14.421
			c-3.729,15.214-10.587,29.484-20.139,41.899c-0.87,1.286-1.345,2.799-1.365,4.352v23.04c-0.005,0.579,0.081,1.155,0.256,1.707
			c0.352,1.962,1.577,3.657,3.328,4.608l21.589,12.885l60.672,36.352C492.939,394.976,502.462,411.787,502.467,429.931z"/>
		<path style="fill:#607D8B;" d="M476.867,429.931v46.933h-59.733V442.39c-0.008-20.978-11.021-40.413-29.013-51.2l-24.32-14.592
			l-32-19.2l-2.731-1.621l-1.536-0.939l-34.219-20.565c-2.621-1.507-4.221-4.315-4.181-7.339v-26.539
			c0.015-1.778,0.581-3.507,1.621-4.949c10.968-14.344,18.737-30.872,22.784-48.469c1.242-6.329,4.33-12.149,8.875-16.725
			c6.008-6.027,9.383-14.189,9.387-22.699v-30.293c-0.005-4.979-1.174-9.889-3.413-14.336l-1.707-3.584
			c-2.239-4.447-3.408-9.357-3.413-14.336v-43.605c0.013-8.753-1.698-17.423-5.035-25.515l0.085-0.085h18.944
			c32.407,0.293,58.528,26.642,58.539,59.051v37.803c0.017,4.291,1.009,8.522,2.901,12.373l1.536,3.072
			c1.931,3.837,2.925,8.078,2.901,12.373v26.283c0.004,7.358-2.911,14.417-8.107,19.627c-3.895,3.955-6.537,8.972-7.595,14.421
			c-3.729,15.214-10.587,29.484-20.139,41.899c-0.87,1.286-1.345,2.799-1.365,4.352v23.04c-0.005,0.579,0.081,1.155,0.256,1.707
			c0.352,1.962,1.577,3.657,3.328,4.608l21.589,12.885l16.043,9.557l44.629,26.795C467.339,394.976,476.862,411.787,476.867,429.931
			z"/>
		<path style="fill:#D84315;" d="M502.467,429.931v46.933h-25.6v-46.933c-0.005-18.144-9.528-34.956-25.088-44.288l-44.629-26.795
			l9.557-9.557l60.672,36.352C492.939,394.976,502.462,411.787,502.467,429.931z"/>
		<path style="fill:#FF5722;" d="M476.867,429.931v46.933h-34.133V442.39c-0.008-20.978-11.021-40.413-29.013-51.2l-24.32-14.592
			l17.749-17.749l44.629,26.795C467.339,394.976,476.862,411.787,476.867,429.931z"/>
		<path style="fill:#FFFFFF;" d="M353.133,354.838l1.536,0.939l2.731,1.621l32,19.2l27.307-27.307l-21.589-12.885
			c-1.751-0.951-2.976-2.646-3.328-4.608h-0.256L353.133,354.838z"/>
		<path style="fill:#CFD8DC;" d="M357.4,184.939v22.613c-0.003,8.51-3.379,16.672-9.387,22.699
			c-4.545,4.576-7.633,10.396-8.875,16.725c-4.047,17.598-11.816,34.125-22.784,48.469c-1.04,1.442-1.607,3.171-1.621,4.949v26.539
			c-0.028,1.497,0.356,2.973,1.109,4.267l-1.109,9.131L255,365.931l-59.733-25.6l-1.109-9.131c0.754-1.294,1.137-2.77,1.109-4.267
			v-26.539c-0.015-1.778-0.581-3.507-1.621-4.949c-10.968-14.344-18.737-30.872-22.784-48.469
			c-1.242-6.329-4.33-12.149-8.875-16.725c-6.008-6.027-9.383-14.189-9.387-22.699v-30.293c0.005-4.979,1.174-9.889,3.413-14.336
			l1.707-3.584c2.239-4.447,3.408-9.357,3.413-14.336v-43.605c-0.005-18.107,7.186-35.474,19.989-48.277s30.17-19.994,48.277-19.989
			h51.2c19.729-0.028,38.501,8.502,51.456,23.381L357.4,184.939z"/>
		<path style="fill:#607D8B;" d="M242.2,360.47l12.8,5.461l59.733-25.6l1.109-9.131c-0.754-1.294-1.137-2.77-1.109-4.267v-26.539
			c0.015-1.778,0.581-3.507,1.621-4.949c10.968-14.344,18.737-30.872,22.784-48.469c1.242-6.329,4.33-12.149,8.875-16.725
			c6.008-6.027,9.383-14.189,9.387-22.699v-30.293c-0.005-4.979-1.174-9.889-3.413-14.336l-1.707-3.584
			c-2.239-4.447-3.408-9.357-3.413-14.336v-43.605c0.005-18.107-7.186-35.474-19.989-48.277
			c-12.804-12.804-30.17-19.994-48.277-19.989H255c18.107-0.005,35.474,7.186,48.277,19.989
			c12.804,12.804,19.994,30.17,19.989,48.277v43.605c0.005,4.979,1.174,9.889,3.413,14.336l1.707,3.584
			c2.239,4.447,3.408,9.357,3.413,14.336v30.293c-0.003,8.51-3.379,16.672-9.387,22.699c-4.545,4.576-7.633,10.396-8.875,16.725
			c-4.047,17.598-11.816,34.125-22.784,48.469c-1.04,1.442-1.607,3.171-1.621,4.949v26.539c-0.028,1.497,0.356,2.973,1.109,4.267
			l-1.109,9.131L242.2,360.47z"/>
		<path style="fill:#00695C;" d="M442.733,442.39v34.475H67.267V442.39c0.008-20.978,11.021-40.413,29.013-51.2l56.32-33.792
			l2.731-1.621h199.339l2.731,1.621l56.32,33.792C431.712,401.976,442.726,421.412,442.733,442.39z"/>
		<path style="fill:#009688;" d="M417.133,442.39v34.475H67.267V442.39c0.008-20.978,11.021-40.413,29.013-51.2l56.32-33.792
			l2.731-1.621h173.739l2.731,1.621l56.32,33.792C406.112,401.976,417.126,421.412,417.133,442.39z"/>
		<g>
			<path style="fill:#FFFFFF;" d="M255,357.398l-34.133,34.133l-65.536-35.755l35.755-21.504c1.282-0.728,2.344-1.79,3.072-3.072
				l1.109,0.597L255,357.398z"/>
			<path style="fill:#FFFFFF;" d="M354.669,355.777l-65.536,35.755L255,357.398l59.733-25.6l1.109-0.597
				c0.728,1.283,1.79,2.344,3.072,3.072L354.669,355.777z"/>
		</g>
		<polygon style="fill:#2296F3;" points="289.133,476.865 220.867,476.865 246.467,408.598 263.533,408.598 		"/>
		<polygon style="fill:#FFFFFF;" points="246.467,408.598 220.867,476.865 152.6,357.398 155.331,355.777 220.867,391.531 
			228.205,384.193 		"/>
		<polygon style="fill:#2296F3;" points="281.795,384.193 263.533,408.598 246.467,408.598 228.205,384.193 255,357.398 		"/>
		<polygon style="fill:#FFFFFF;" points="357.4,357.398 289.133,476.865 263.533,408.598 281.795,384.193 289.133,391.531 
			354.669,355.777 		"/>
	</g>
	<path d="M482.763,379.323l-81.704-48.905l-0.254-21.704c10.298-13.386,17.657-28.793,21.596-45.216
		c0.727-3.807,2.56-7.314,5.271-10.083c6.771-6.827,10.58-16.047,10.6-25.663v-26.283c0.023-5.62-1.279-11.165-3.8-16.188
		l-1.504-3.004c-1.321-2.684-2.016-5.633-2.033-8.625v-37.804c-0.041-37.308-30.275-67.542-67.583-67.583h-13.055
		c-12.954-26.099-39.558-42.623-68.695-42.667h-51.2c-29.137,0.043-55.742,16.567-68.695,42.667H148.65
		c-37.308,0.041-67.542,30.275-67.583,67.583v37.804c-0.014,2.966-0.698,5.89-2,8.554l-1.5,3.008
		c-2.544,5.039-3.858,10.609-3.837,16.254v26.283c0.02,9.616,3.83,18.837,10.604,25.663c2.713,2.777,4.547,6.294,5.271,10.108
		c3.85,16.195,11.123,31.378,21.329,44.529v22.371l-81.708,48.908C11.149,390.255,0.073,409.811,0,430.931v46.933
		c0,4.713,3.821,8.533,8.533,8.533h213.31l0.023,0.004l0.028-0.004h68.212l0.028,0.004l0.023-0.004h213.31
		c4.713,0,8.533-3.821,8.533-8.533v-46.933C511.926,409.806,500.845,390.247,482.763,379.323z M403.914,352.018l-14.829,14.829
		l-18.352-11.017l19.918-11.951c0.375,0.269,0.68,0.609,1.082,0.848L403.914,352.018z M435.2,469.331H304.837l56.654-99.145
		l48.83,29.316c15.476,9.195,24.938,25.886,24.879,43.888L435.2,469.331z M196.379,342.648c0.161-0.094,0.276-0.235,0.433-0.333
		l44.243,18.961l-20.709,20.706l-46.881-25.577L196.379,342.648z M315.176,342.32c0.127,0.079,0.22,0.194,0.35,0.27l23.01,13.815
		l-46.881,25.577l-20.709-20.706L315.176,342.32z M251.738,401.065l-11.272-15.066L256,370.465l15.534,15.534l-11.272,15.066
		H251.738z M283.728,398.192l0.372,0.372c2.677,2.677,6.797,3.271,10.121,1.458l44.411-24.229l-46.889,82.056l-17.579-46.878
		L283.728,398.192z M217.779,400.023c3.324,1.812,7.444,1.219,10.121-1.458l0.372-0.372l9.564,12.78l-17.579,46.878l-46.889-82.056
		L217.779,400.023z M253.382,418.131h5.236l19.2,51.2h-43.636L253.382,418.131z M363.35,85.331
		c27.886,0.032,50.485,22.63,50.517,50.517v37.804c0.024,5.614,1.324,11.149,3.8,16.188l1.575,3.142
		c1.312,2.636,1.984,5.543,1.963,8.488v26.283c-0.008,5.092-2.021,9.977-5.604,13.596c-5.079,5.132-8.53,11.649-9.921,18.733
		c-3.524,14.134-9.955,27.378-18.883,38.887c-1.809,2.685-2.782,5.846-2.796,9.083v19.914l-29.849,17.909l-29.884-17.94
		l-0.009-26.479c11.702-15.338,19.978-33.008,24.271-51.817c0.906-4.666,3.17-8.961,6.508-12.346
		c7.642-7.601,11.926-17.943,11.896-28.721V178.24c-0.006-6.305-1.474-12.524-4.288-18.167l-1.762-3.521
		c-1.631-3.271-2.481-6.875-2.483-10.529v-43.625c-0.017-5.745-0.68-11.47-1.978-17.067H363.35z M230.4,42.665h51.2
		c32.974,0.037,59.696,26.759,59.733,59.733v43.625c0.006,6.305,1.474,12.524,4.288,18.167l1.762,3.521
		c1.631,3.271,2.481,6.875,2.483,10.529v30.333c0.015,6.257-2.474,12.26-6.913,16.671c-5.707,5.748-9.586,13.056-11.15,21.004
		c-3.857,16.439-11.159,31.872-21.425,45.279c-2.057,2.88-3.168,6.328-3.179,9.867v25.779L256,349.115l-51.2-21.942v-25.779
		c-0.017-3.579-1.154-7.062-3.25-9.962c-10.234-13.381-17.512-28.781-21.354-45.183c-1.566-7.955-5.452-15.27-11.167-21.021
		c-4.429-4.408-6.912-10.405-6.896-16.654V178.24c0.003-3.656,0.854-7.262,2.487-10.533l1.754-3.512
		c2.816-5.644,4.285-11.864,4.292-18.171v-43.625C170.704,69.423,197.426,42.702,230.4,42.665z M106.325,260.106
		c-1.389-7.093-4.84-13.618-9.921-18.758c-3.585-3.618-5.601-8.503-5.608-13.596v-26.283c-0.019-2.969,0.666-5.901,2-8.554
		l1.571-3.146c2.458-5.018,3.745-10.529,3.766-16.117v-37.804c0.032-27.886,22.63-50.485,50.517-50.517h6.928
		c-1.297,5.597-1.961,11.322-1.978,17.067v43.625c-0.003,3.656-0.854,7.262-2.487,10.533l-1.754,3.512
		c-2.816,5.644-4.285,11.864-4.292,18.171v30.333c-0.028,10.786,4.262,21.135,11.913,28.738c3.33,3.381,5.588,7.67,6.492,12.329
		c4.284,18.791,12.558,36.441,24.262,51.754l-0.037,26.563l-29.848,17.919L128,327.966v-19.914c-0.032-3.354-1.076-6.62-2.996-9.371
		C116.168,287.258,109.807,274.122,106.325,260.106z M120.238,344.744c0.412-0.245,0.724-0.592,1.108-0.867l19.921,11.953
		l-18.352,11.017l-14.829-14.829L120.238,344.744z M17.067,430.931c0.055-15.13,7.99-29.139,20.937-36.966l54.985-32.911
		l14.845,14.845l-14.955,8.978c-20.493,12.393-33.053,34.564-33.146,58.513v25.941H17.067V430.931z M76.8,443.39
		c-0.06-17.998,9.399-34.688,24.871-43.883l48.838-29.32l56.654,99.144H76.8L76.8,443.39z M494.933,469.331h-42.667V443.39
		c-0.094-23.952-12.657-46.125-33.154-58.517l-14.947-8.974l14.846-14.846l54.972,32.902c12.954,7.828,20.893,21.84,20.95,36.975
		V469.331z"/>
</g>
<g>
</g>
<g>
</g>
<g>
</g>
<g>
</g>
<g>
</g>
<g>
</g>
<g>
</g>
<g>
</g>
<g>
</g>
<g>
</g>
<g>
</g>
<g>
</g>
<g>
</g>
<g>
</g>
<g>
</g>
</svg>
