<svg height="512pt" viewBox="0 -57 512.00109 512" width="512pt" xmlns="http://www.w3.org/2000/svg"><path d="m64.652344 390.53125h382.695312c46.070313 0 73.097656-51.832031 46.71875-89.605469l-185.898437-266.226562c-25.324219-36.265625-79.011719-36.265625-104.332031 0l-185.902344 266.226562c-26.375 37.773438.648437 89.605469 46.71875 89.605469zm0 0" fill="#ff929f"/><path d="m208.425781 228.570312c62.246094-65.75 73.140625-162.703124 74.035157-215.367187-26.632813-12.113281-60.164063-4.945313-78.625 21.496094l-185.902344 266.226562c-26.375 37.773438.648437 89.605469 46.71875 89.605469h81.394531c-.769531-42.011719 9.003906-105.578125 62.378906-161.960938zm0 0" fill="#ff737d"/><path d="m256 258.875c-17.386719 0-31.613281-14.230469-31.613281-31.617188v-126.859374c0-17.390626 14.226562-31.617188 31.613281-31.617188 17.390625 0 31.617188 14.226562 31.617188 31.617188v126.859374c0 17.386719-14.226563 31.617188-31.617188 31.617188zm0 0" fill="#fff"/><path d="m287.214844 319.03125c0 17.242188-13.972656 31.214844-31.214844 31.214844-17.238281 0-31.214844-13.972656-31.214844-31.214844 0-17.238281 13.976563-31.214844 31.214844-31.214844 17.242188 0 31.214844 13.976563 31.214844 31.214844zm0 0" fill="#fff"/><path d="m276.886719 76.710938c-5.582031-4.933594-12.898438-7.929688-20.886719-7.929688-17.386719 0-31.613281 14.226562-31.613281 31.617188v109.222656c30.773437-41.0625 45.59375-90.265625 52.5-132.910156zm0 0" fill="#ccf8ff"/><path d="m500.21875 296.632812-110.820312-158.703124c-2.375-3.394532-7.046876-4.226563-10.441407-1.851563-3.394531 2.371094-4.226562 7.042969-1.855469 10.4375l110.820313 158.703125c10.757813 15.40625 11.992187 34.550781 3.308594 51.207031-8.6875 16.660157-25.089844 26.609375-43.878907 26.609375h-382.699218c-18.789063 0-35.191406-9.949218-43.878906-26.609375-8.6875-16.65625-7.449219-35.800781 3.304687-51.207031l185.902344-266.226562c10.648437-15.25 27.421875-23.996094 46.019531-23.996094s35.371094 8.746094 46.019531 23.996094l55.976563 80.164062c2.371094 3.394531 7.042968 4.226562 10.441406 1.855469 3.394531-2.371094 4.226562-7.046875 1.851562-10.441407l-55.976562-80.164062c-13.492188-19.324219-34.746094-30.40625-58.3125-30.40625s-44.820312 11.082031-58.316406 30.40625l-185.898438 266.226562c-14.019531 20.074219-15.628906 45.019532-4.308594 66.726563 11.320313 21.710937 32.691407 34.667969 57.175782 34.667969h382.699218c24.480469 0 45.855469-12.957032 57.171876-34.667969 11.320312-21.707031 9.710937-46.652344-4.304688-66.726563zm0 0"/><path d="m295.113281 100.398438c0-21.566407-17.546875-39.113282-39.113281-39.113282s-39.113281 17.546875-39.113281 39.113282v126.859374c0 21.566407 17.546875 39.113282 39.113281 39.113282s39.113281-17.546875 39.113281-39.113282zm-14.992187 126.859374c0 13.296876-10.820313 24.117188-24.121094 24.117188-13.296875 0-24.117188-10.820312-24.117188-24.117188v-126.859374c0-13.300782 10.820313-24.117188 24.117188-24.117188 13.300781 0 24.121094 10.816406 24.121094 24.117188zm0 0"/><path d="m256 342.75c-13.074219 0-23.714844-10.640625-23.714844-23.71875 0-4.140625-3.355468-7.496094-7.5-7.496094-4.140625 0-7.496094 3.355469-7.496094 7.496094 0 21.347656 17.367188 38.714844 38.710938 38.714844 21.347656 0 38.714844-17.367188 38.714844-38.714844s-17.367188-38.714844-38.714844-38.714844c-7.003906 0-13.871094 1.894532-19.855469 5.476563-3.550781 2.128906-4.710937 6.730469-2.582031 10.285156 2.125 3.554687 6.730469 4.710937 10.285156 2.582031 3.65625-2.1875 7.859375-3.347656 12.152344-3.347656 13.078125 0 23.71875 10.640625 23.71875 23.71875s-10.640625 23.71875-23.71875 23.71875zm0 0"/></svg>