<?xml version="1.0" encoding="iso-8859-1"?>
<!-- Generator: Adobe Illustrator 19.0.0, SVG Export Plug-In . SVG Version: 6.00 Build 0)  -->
<svg version="1.1" id="Capa_1" xmlns="http://www.w3.org/2000/svg" xmlns:xlink="http://www.w3.org/1999/xlink" x="0px" y="0px"
	 viewBox="0 0 480 480" style="enable-background:new 0 0 480 480;" xml:space="preserve">
<path style="fill:#FFDAAA;" d="M472,88H8v384h464V88z M192,136h96c8.837,0,16,7.163,16,16s-7.163,16-16,16h-96
	c-8.837,0-16-7.163-16-16S183.163,136,192,136z M184,368V240l-33.944,33.944L184,240l33.944,33.944L184,240V368h112V240
	l-33.944,33.944L296,240l33.944,33.944L296,240v128H184z"/>
<g>
	<path style="fill:#FFB655;" d="M472,88L424,8h-8v80H472z"/>
	<path style="fill:#FFB655;" d="M64,8h352v80H64V8z"/>
	<path style="fill:#FFB655;" d="M64,8h-8L8,88h56V8z"/>
</g>
<path style="fill:#FFDAAA;" d="M192,168h96c8.837,0,16-7.163,16-16s-7.163-16-16-16h-96c-8.837,0-16,7.163-16,16
	S183.163,168,192,168z"/>
<g>
	<path style="fill:#231F20;" d="M479.44,85.224c-0.088-0.232-0.184-0.44-0.288-0.664c-0.084-0.233-0.183-0.46-0.296-0.68l-48-80
		C429.41,1.473,426.808,0.001,424,0H56c-2.808,0.001-5.41,1.473-6.856,3.88l-48,80c-0.113,0.22-0.212,0.447-0.296,0.68
		c-0.104,0.216-0.2,0.432-0.288,0.664C0.212,86.109,0.022,87.049,0,88v384c0,4.418,3.582,8,8,8h464c4.418,0,8-3.582,8-8V88
		C479.978,87.049,479.788,86.109,479.44,85.224L479.44,85.224z M457.872,80H424V23.552L457.872,80z M72,80V16h336v64H72z M56,23.552
		V80H22.128L56,23.552z M464,464H16V96h448V464z"/>
	<path style="fill:#231F20;" d="M352,360h-48V259.312l20.288,20.28c3.178,3.07,8.242,2.982,11.312-0.196
		c2.995-3.1,2.995-8.016,0-11.116l-33.936-33.928c-3.12-3.128-8.186-3.135-11.314-0.014c-0.005,0.005-0.01,0.01-0.014,0.014
		L256.4,268.28c-3.07,3.178-2.982,8.242,0.196,11.312c3.1,2.995,8.016,2.995,11.116,0L288,259.312V360h-96V259.312l20.288,20.28
		c3.07,3.178,8.134,3.266,11.312,0.196c3.178-3.07,3.266-8.134,0.196-11.312c-0.064-0.067-0.13-0.132-0.196-0.196l-33.936-33.928
		c-3.12-3.128-8.186-3.135-11.314-0.014c-0.005,0.005-0.01,0.01-0.014,0.014L144.4,268.28c-3.178,3.069-3.266,8.134-0.196,11.312
		c3.069,3.178,8.134,3.266,11.312,0.196c0.067-0.064,0.132-0.13,0.196-0.196L176,259.312V360h-48c-4.418,0-8,3.582-8,8s3.582,8,8,8
		h224c4.418,0,8-3.582,8-8S356.418,360,352,360L352,360z"/>
	<path style="fill:#231F20;" d="M192,176h96c13.255,0,24-10.745,24-24s-10.745-24-24-24h-96c-13.255,0-24,10.745-24,24
		S178.745,176,192,176z M192,144h96c4.418,0,8,3.582,8,8s-3.582,8-8,8h-96c-4.418,0-8-3.582-8-8S187.582,144,192,144z"/>
	<path style="fill:#231F20;" d="M56,440h16v16H56V440z"/>
	<path style="fill:#231F20;" d="M24,440h16v16H24V440z"/>
	<path style="fill:#231F20;" d="M88,440h16v16H88V440z"/>
	<path style="fill:#231F20;" d="M120,440h16v16h-16V440z"/>
	<path id="SVGCleanerId_0" style="fill:#231F20;" d="M152,440h16v16h-16V440z"/>
	<g>
		<path id="SVGCleanerId_0_1_" style="fill:#231F20;" d="M152,440h16v16h-16V440z"/>
	</g>
	<path style="fill:#231F20;" d="M184,440h16v16h-16V440z"/>
	<path style="fill:#231F20;" d="M216,440h16v16h-16V440z"/>
	<path style="fill:#231F20;" d="M248,440h16v16h-16V440z"/>
	<path style="fill:#231F20;" d="M280,440h16v16h-16V440z"/>
	<path style="fill:#231F20;" d="M312,440h16v16h-16V440z"/>
	<path style="fill:#231F20;" d="M344,440h16v16h-16V440z"/>
	<path style="fill:#231F20;" d="M376,440h16v16h-16V440z"/>
	<path style="fill:#231F20;" d="M408,440h16v16h-16V440z"/>
	<path style="fill:#231F20;" d="M440,440h16v16h-16V440z"/>
</g>
<g>
</g>
<g>
</g>
<g>
</g>
<g>
</g>
<g>
</g>
<g>
</g>
<g>
</g>
<g>
</g>
<g>
</g>
<g>
</g>
<g>
</g>
<g>
</g>
<g>
</g>
<g>
</g>
<g>
</g>
</svg>
