<?xml version="1.0" encoding="UTF-8" standalone="no"?>
<!DOCTYPE svg PUBLIC "-//W3C//DTD SVG 1.1//EN" "http://www.w3.org/Graphics/SVG/1.1/DTD/svg11.dtd">
<svg width="100%" height="100%" viewBox="0 0 512 512" version="1.1" xmlns="http://www.w3.org/2000/svg" xmlns:xlink="http://www.w3.org/1999/xlink" xml:space="preserve" xmlns:serif="http://www.serif.com/" style="fill-rule:evenodd;clip-rule:evenodd;stroke-linejoin:round;stroke-miterlimit:1.41421;">
    <path d="M500.505,317C507.646,309.032 512,298.517 512,287C512,262.187 491.813,242 467,242L407,242L371.825,242C385.222,206.072 392,168.402 392,129.721L392,107C392,82.187 371.813,62 347,62C322.187,62 302,82.187 302,107C302,141.686 288.493,174.294 263.967,198.82L220.787,242L197,242C188.716,242 182,248.716 182,257C182,265.284 188.716,272 197,272L227,272C230.978,272 234.793,270.419 237.606,267.606L285.18,220.032C315.372,189.841 332,149.699 332,107C332,98.729 338.729,92 347,92C355.271,92 362,98.729 362,107L362,129.721C362,171.776 353.167,212.508 335.748,250.787C333.635,255.43 334.026,260.829 336.787,265.118C339.548,269.407 344.299,272 349.4,272L364.58,272C362.915,276.695 362,281.742 362,287C362,298.517 366.354,309.032 373.495,317C366.354,324.968 362,335.483 362,347C362,358.517 366.354,369.032 373.495,377C366.354,384.968 362,395.483 362,407C362,418.517 366.354,429.032 373.495,437C366.354,444.968 362,455.483 362,467C362,472.258 362.915,477.305 364.58,482L294.338,482C274.267,482 255.397,474.184 241.205,459.992L207.607,426.394C201.75,420.536 192.252,420.536 186.394,426.394C180.536,432.252 180.536,441.749 186.394,447.607L219.992,481.205C239.85,501.063 266.253,512 294.338,512L437,512C461.813,512 482,491.813 482,467C482,461.144 480.864,455.551 478.819,450.414C497.916,445.209 512,427.723 512,407C512,395.483 507.646,384.968 500.505,377C507.646,369.032 512,358.517 512,347C512,335.483 507.646,324.968 500.505,317ZM392,347C392,338.729 398.729,332 407,332L467,332C475.271,332 482,338.729 482,347C482,355.271 475.271,362 467,362L407,362C398.729,362 392,355.271 392,347ZM467,272C475.271,272 482,278.729 482,287C482,295.271 475.271,302 467,302L407,302C398.729,302 392,295.271 392,287C392,278.729 398.729,272 407,272L467,272ZM437,482L407,482C398.729,482 392,475.271 392,467C392,458.729 398.729,452 407,452L437,452C445.271,452 452,458.729 452,467C452,475.271 445.271,482 437,482ZM467,422L437,422L407,422C398.729,422 392,415.271 392,407C392,398.729 398.729,392 407,392L467,392C475.271,392 482,398.729 482,407C482,415.271 475.271,422 467,422Z" style="fill:rgb(51,51,51);fill-rule:nonzero;"/>
    <path d="M197,482L137,482C128.716,482 122,475.284 122,467C122,458.716 128.716,452 137,452L182,452L182,242L137,242C128.716,242 122,235.284 122,227C122,218.716 128.716,212 137,212L197,212C205.284,212 212,218.716 212,227L212,467C212,475.284 205.284,482 197,482Z" style="fill:rgb(51,51,51);fill-rule:nonzero;"/>
    <g>
        <circle cx="407" cy="15" r="15" style="fill:rgb(0,34,117);"/>
        <path d="M197.106,150.606C197.106,150.606 197.107,150.606 197.106,150.606C191.424,150.606 186.231,147.396 183.689,142.314L165.925,106.787L130.397,89.022C125.315,86.481 122.105,81.288 122.105,75.606C122.105,69.924 125.315,64.731 130.397,62.189L165.88,44.447L183.649,8.377C186.174,3.252 191.392,0.006 197.105,0.006C202.818,0.006 208.036,3.252 210.561,8.377L228.331,44.447L263.814,62.189C268.896,64.73 272.106,69.924 272.106,75.606C272.106,81.287 268.896,86.481 263.814,89.022L228.287,106.787L210.522,142.314C207.982,147.396 202.788,150.606 197.106,150.606ZM170.646,75.606L183.814,82.191C186.717,83.642 189.07,85.996 190.522,88.899L197.106,102.067L203.691,88.899C205.142,85.996 207.496,83.643 210.399,82.191L223.567,75.606L210.399,69.022C207.469,67.557 205.099,65.173 203.652,62.234L197.107,48.948L190.562,62.234C189.115,65.172 186.745,67.556 183.815,69.022L170.646,75.606Z" style="fill:rgb(0,34,117);fill-rule:nonzero;"/>
        <path d="M497,122L482,122L482,107C482,98.716 475.284,92 467,92C458.716,92 452,98.716 452,107L452,122L437,122C428.716,122 422,128.716 422,137C422,145.284 428.716,152 437,152L452,152L452,167C452,175.284 458.716,182 467,182C475.284,182 482,175.284 482,167L482,152L497,152C505.284,152 512,145.284 512,137C512,128.716 505.284,122 497,122Z" style="fill:rgb(0,34,117);fill-rule:nonzero;"/>
    </g>
    <path d="M137,512L15,512C6.716,512 0,505.284 0,497L0,197C0,188.716 6.716,182 15,182L137,182C145.284,182 152,188.716 152,197L152,497C152,505.284 145.284,512 137,512ZM30,482L122,482L122,212L30,212L30,482Z" style="fill:rgb(51,51,51);fill-rule:nonzero;"/>
    <circle cx="77" cy="437" r="15" style="fill:rgb(0,34,117);"/>
</svg>
