<svg xmlns:dc="http://purl.org/dc/elements/1.1/" xmlns:cc="http://creativecommons.org/ns#" xmlns:rdf="http://www.w3.org/1999/02/22-rdf-syntax-ns#" xmlns:svg="http://www.w3.org/2000/svg" xmlns="http://www.w3.org/2000/svg" xmlns:sodipodi="http://sodipodi.sourceforge.net/DTD/sodipodi-0.dtd" xmlns:inkscape="http://www.inkscape.org/namespaces/inkscape" version="1.1" x="0px" y="0px" viewBox="0 -20 100 125"><g transform="translate(0,-952.36218)"><path style="text-indent:0;text-transform:none;direction:ltr;block-progression:tb;baseline-shift:baseline;color: #000000;fill: #26396d;enable-background:accumulate;" d="m 50,966.36217 c -4.95872,0 -9,4.04128 -9,9 0,4.95872 4.04128,9 9,9 4.95872,0 9,-4.04128 9,-9 0,-4.95872 -4.04128,-9 -9,-9 z m 0,2 c 3.87781,0 7,3.12216 7,7 0,3.87784 -3.12219,7 -7,7 -3.87782,0 -7,-3.12216 -7,-7 0,-3.87784 3.12218,-7 7,-7 z m -26,7 c -4.95872,0 -9,4.04128 -9,9 0,4.95872 4.04128,9 9,9 1.53469,0 2.98367,-0.34966 4.25,-1.03125 -0.15142,0.65291 -0.25,1.33328 -0.25,2.03125 0,0.43804 0.0328,0.85968 0.0937,1.28125 -1.31826,-0.19524 -2.68256,-0.28125 -4.0937,-0.28125 -4.88585,0 -9.29709,1.26247 -12.5625,3.37502 C 8.17209,1000.8497 6,1003.886 6,1007.2684 l 0,11.0938 a 1.0001,1.0001 0 0 0 1,1 c 4.61538,0 6.99135,0 12,0 l 0,9 a 1.0001,1.0001 0 0 0 1,1 c 4.61538,0 6.99135,0 12,0 l 0,8 a 1.0001,1.0001 0 0 0 1,1 l 34,0 a 1.0001,1.0001 0 0 0 1,-1 l 0,-8 c 5.00865,0 7.38462,0 12,0 a 1.0001,1.0001 0 0 0 1,-1 l 0,-9 c 5.00865,0 7.38462,0 12,0 a 1.0001,1.0001 0 0 0 1,-1 l 0,-11.0938 c 0,-3.3823 -2.17209,-6.4187 -5.4375,-8.53121 -3.26541,-2.11255 -7.67665,-3.37502 -12.5625,-3.37502 -1.41114,0 -2.77544,0.086 -4.09375,0.28125 0.0609,-0.42157 0.0937,-0.84321 0.0937,-1.28125 0,-0.69797 -0.0986,-1.37834 -0.25,-2.03125 1.26633,0.68159 2.71531,1.03125 4.25,1.03125 4.95872,0 9,-4.04129 9,-9 0,-4.95872 -4.04128,-9 -9,-9 -4.95872,0 -9,4.04128 -9,9 0,0.7188 0.0897,1.42302 0.25,2.09375 -1.26918,-0.6856 -2.71048,-1.09375 -4.25,-1.09375 -2.1538,0 -4.13583,0.76239 -5.6875,2.03125 -2.23604,-0.66162 -4.70177,-1.03125 -7.3125,-1.03125 -2.61081,0 -5.07658,0.3699 -7.3125,1.03125 -1.55167,-1.26886 -3.5337,-2.03125 -5.6875,-2.03125 -1.53952,0 -2.98082,0.40815 -4.25,1.09375 0.16032,-0.67073 0.25,-1.37494 0.25,-2.09375 0,-4.95872 -4.04128,-9 -9,-9 z m 0,2 c 3.87784,0 7,3.12216 7,7 0,3.87784 -3.12216,7 -7,7 -3.87784,0 -7,-3.12216 -7,-7 0,-3.87784 3.12216,-7 7,-7 z m 52,0 c 3.87784,0 7,3.12216 7,7 0,3.87783 -3.12216,7 -7,7 -3.87784,0 -7,-3.12217 -7,-7 0,-3.87784 3.12216,-7 7,-7 z m -39,10 c 3.87782,0 7,3.12216 7,7 0,1.12768 -0.28014,2.18333 -0.75,3.12502 -0.48032,0.5454 -0.88023,1.1314 -1.21875,1.7812 -1.26983,1.30261 -3.06017,2.09381 -5.03125,2.09381 -3.87781,0 -7,-3.12221 -7,-7.00003 0,-3.87784 3.12219,-7 7,-7 z m 26,0 c 3.87781,0 7,3.12216 7,7 0,3.87782 -3.12219,7.00003 -7,7.00003 -1.97108,0 -3.76142,-0.7912 -5.03125,-2.09381 -0.33852,-0.6498 -0.73843,-1.2358 -1.21875,-1.7812 -0.46986,-0.94169 -0.75,-1.99734 -0.75,-3.12502 0,-3.87784 3.12218,-7 7,-7 z m -13,1 c 2.02754,0 3.94001,0.28337 5.71875,0.71875 C 54.63797,990.56584 54,992.39119 54,994.36217 c 0,0.34636 0.0527,0.69368 0.0937,1.03125 -1.23021,-0.63264 -2.61911,-0.96875 -4.09375,-0.96875 -1.47464,0 -2.86354,0.33611 -4.09375,0.96875 0.0411,-0.33757 0.0938,-0.68489 0.0938,-1.03125 0,-1.97098 -0.63797,-3.79633 -1.71875,-5.28125 1.77879,-0.43532 3.69127,-0.71875 5.71875,-0.71875 z m 0,8.0625 c 3.87781,0 7,3.12212 7,7.00003 0,3.8778 -3.12219,7 -7,7 -3.87782,0 -7,-3.1222 -7,-7 0,-3.87791 3.12218,-7.00003 7,-7.00003 z m -26,0.93752 c 1.64615,0 3.20594,0.1778 4.6875,0.4687 1.36009,3.24851 4.57908,5.53131 8.3125,5.53131 1.44817,0 2.81835,-0.3566 4.03125,-0.9688 -0.0374,0.3324 -0.0312,0.6892 -0.0312,1.0313 0,0.7923 0.11889,1.5485 0.3125,2.2812 -1.38477,-0.2235 -2.80982,-0.3437 -4.31255,-0.3437 -4.88585,0 -9.29709,1.2624 -12.5625,3.375 -3.26541,2.1125 -5.4375,5.1488 -5.4375,8.5312 l 0,0.094 c -4.60579,0 -7.12472,10e-5 -11,0 l 0,-10.0937 c 0,-2.527 1.61991,-4.9805 4.5,-6.8438 2.88009,-1.86321 6.96786,-3.06251 11.5,-3.06251 z m 52,0 c 4.53214,0 8.61991,1.1992 11.5,3.06251 2.88009,1.8632 4.5,4.3167 4.5,6.8437 l 0,10.0938 c -3.87528,0 -6.39421,0 -11,0 l 0,-0.094 c 0,-3.3824 -2.17209,-6.4187 -5.4375,-8.5313 -3.26541,-2.1126 -7.67665,-3.375 -12.5625,-3.375 -1.50273,0 -2.92778,0.1202 -4.3125,0.3437 0.19361,-0.7327 0.3125,-1.4889 0.3125,-2.2812 0,-0.3421 0.006,-0.6989 -0.0312,-1.0313 1.21285,0.6122 2.58303,0.9688 4.0312,0.9688 3.73342,0 6.95241,-2.2828 8.3125,-5.53131 1.48156,-0.2909 3.04135,-0.4687 4.6875,-0.4687 z m -39,10.00001 c 1.8311,0 3.58469,0.2029 5.21875,0.5625 1.56118,2.6807 4.46489,4.5 7.78125,4.5 3.31636,0 6.22007,-1.8193 7.78125,-4.5 1.63406,-0.3596 3.38765,-0.5625 5.21875,-0.5625 4.53214,0 8.61991,1.1992 11.5,3.0625 2.88009,1.8632 4.5,4.3167 4.5,6.8437 l 0,10.0938 c -3.87528,0 -6.39421,0 -11,0 l 0,-1.0938 c 0,-3.3823 -2.17211,-6.418 -5.4375,-8.5312 -3.26539,-2.1133 -7.67655,-3.375 -12.5625,-3.375 -4.88595,0 -9.29711,1.2617 -12.5625,3.375 -3.26539,2.1132 -5.4375,5.1489 -5.4375,8.5312 l 0,1.0938 c -4.60579,0 -7.12472,0 -11,0 l 0,-10.0938 c 0,-2.527 1.61991,-4.9805 4.5,-6.8437 2.88009,-1.8633 6.96786,-3.0625 11.5,-3.0625 z m 13,9 c 4.53204,0 8.61988,1.1986 11.5,3.0625 2.88012,1.8639 4.5,4.3168 4.5,6.8437 l 0,10.0938 -32,0 0,-10.0938 c 0,-2.5269 1.61988,-4.9798 4.5,-6.8437 2.88012,-1.8639 6.96796,-3.0625 11.5,-3.0625 z" fill="#000000" fill-opacity="1" stroke="none" marker="none" visibility="visible" display="inline" overflow="visible"/></g></svg>