<svg xmlns="http://www.w3.org/2000/svg" xmlns:xlink="http://www.w3.org/1999/xlink" version="1.1" width="150px" height="150px" x="0px" y="0px" viewBox="0 0 100 105" enable-background="new 0 0 100 100" xml:space="preserve"><g>

<path d="M53.196,61.722c-1.602-0.178-3.073-0.987-4.102-2.278c-1.028-1.286-1.495-2.9-1.313-4.535l0.711-6.397h-0.02v-7.593h0.861   l0.391-3.506H46.47V31.59h-8.256v5.823h-4.125v1.146h-4.591v45.036h-2V29.789H22.73v-5.814h-4.718v-9.924h-1.18v9.924h-4.717v5.814   H7.344v56.167h20.152h2h25.692V61.608C54.547,61.744,53.88,61.804,53.196,61.722z M13.295,25.151h8.254v4.634h-8.254V25.151z    M14.06,74.822H9.701v-7.591h4.359V74.822z M14.06,66.052H9.701V58.46h4.359V66.052z M14.06,57.278H9.701v-7.591h4.359V57.278z    M14.06,39.737H9.701v-7.591h2.412h1.948V39.737z M19.601,83.594h-4.36v-7.593h4.36V83.594z M19.601,74.822h-4.36v-7.591h4.36   V74.822z M19.601,48.511h-4.36v-7.593h4.36V48.511z M19.601,39.737h-4.36v-7.591h4.36V39.737z M25.139,74.822h-4.358v-7.591h4.36   v7.591H25.139z M25.139,66.052h-4.358V58.46h4.36v7.592H25.139z M25.139,57.278h-4.358v-7.591h4.36v7.591H25.139z M25.139,48.511   h-4.358v-7.593h4.36v7.593H25.139z M39.396,32.769h5.898v4.056h-5.898V32.769z M36.216,74.822h-4.357v-7.591h4.357V74.822z    M36.216,57.278h-4.357v-7.591h4.357V57.278z M41.756,83.594h-4.361v-7.593h4.361V83.594z M41.756,66.052h-4.361V58.46h4.361   V66.052z M41.756,48.511h-4.361v-7.593h4.361V48.511z M47.293,83.594h-4.361v-7.593h4.361V83.594z M47.293,74.822h-4.361v-7.591   h4.361V74.822z M47.293,66.052h-4.361V58.46h4.361V66.052z M47.293,57.278h-4.361v-7.591h4.361V57.278z M52.833,74.822h-4.361   v-7.591h4.361V74.822z" fill="firebrick"/>

<path d="M70.379,24.02c4.785,0,8.67-5.555,8.67-10.347c0-4.79-3.887-8.673-8.67-8.673c-4.792,0-8.676,3.884-8.676,8.673   C61.703,18.464,65.587,24.02,70.379,24.02z" fill="deepskyblue"/>

<path d="M91.292,60.633H88.83v-2.316c0.96-0.704,1.561-1.84,1.421-3.104l-2.745-24.699c-0.02-0.168-0.105-0.298-0.149-0.454   c-0.06-0.252-0.117-0.499-0.234-0.73c-0.09-0.173-0.218-0.307-0.333-0.46c-0.155-0.202-0.297-0.403-0.494-0.573   c-0.155-0.13-0.337-0.208-0.512-0.311c-0.175-0.102-0.321-0.24-0.517-0.315c-0.312-0.111-7.214-2.585-13.561-2.91l-0.874,1.743   h-0.02l2.312,17.99l-2.745,4.795l-2.746-4.795l2.312-17.99h-0.026l-0.867-1.743c-6.345,0.324-13.248,2.8-13.557,2.91   c-0.201,0.075-0.347,0.217-0.522,0.322c-0.173,0.101-0.354,0.175-0.504,0.304c-0.204,0.171-0.347,0.379-0.51,0.587   c-0.105,0.148-0.229,0.276-0.318,0.441c-0.12,0.233-0.176,0.49-0.243,0.743c-0.038,0.154-0.124,0.285-0.144,0.444L50.51,55.206   c-0.209,1.885,1.145,3.581,3.026,3.788c0.131,0.02,0.257,0.024,0.384,0.024c1.726,0,3.21-1.3,3.402-3.051l2.501-22.496   c0.293-0.086,0.612-0.178,0.952-0.277v23.414l-2.729,33.943c-0.18,2.267,1.508,4.253,3.773,4.432C61.932,94.995,62.039,95,62.15,95   c2.124,0,3.926-1.635,4.098-3.789l2.469-30.677c0.508,0.225,1.069,0.356,1.659,0.356c0.592,0,1.155-0.132,1.658-0.356l2.47,30.677   C74.677,93.365,76.476,95,78.598,95c0.112,0,0.222-0.005,0.334-0.017c2.27-0.179,3.953-2.165,3.773-4.432l-2.729-33.943V33.192   c0.34,0.098,0.66,0.188,0.954,0.277l2.497,22.497c0.186,1.653,1.522,2.854,3.113,2.998v1.664h-2.459   c-0.756,0-1.372,0.618-1.372,1.372V82.81c0,0.754,0.616,1.373,1.372,1.373h7.203c0.756,0,1.371-0.619,1.371-1.373V62.003   C92.662,61.249,92.044,60.633,91.292,60.633z" fill="deepskyblue"/></g></svg>