<svg xmlns="http://www.w3.org/2000/svg" xmlns:xlink="http://www.w3.org/1999/xlink" version="1.1" x="0px" y="0px" viewBox="0 -50 512 610" style="enable-background:new 0 0 512 512;" xml:space="preserve"><g><g><g><path d="M256,370.8c-63.3,0-114.8-51.5-114.8-114.8S192.7,141.2,256,141.2S370.8,192.7,370.8,256     S319.3,370.8,256,370.8z M256,157.2c-54.5,0-98.8,44.3-98.8,98.8s44.3,98.8,98.8,98.8s98.8-44.3,98.8-98.8S310.5,157.2,256,157.2     z"/></g><g><path d="M310.6,309.8H201.4c-2.8,0-5.4-1.5-6.9-3.9c-1.4-2.4-1.5-5.4-0.2-7.9l6.8-12.8c2.2-4.2,3.4-8.8,3.4-13.6     l0-37.3c0-28.6,23.3-51.9,51.9-51.9c28.6,0,51,22.8,51,51.9l0,34.7c0,6.4,1.6,12.7,4.6,18.4l5.6,10.5c1.3,2.5,1.2,5.5-0.2,7.9     C316.1,308.3,313.5,309.8,310.6,309.8z M214.7,293.8h82.6c-3.8-7.6-5.8-16.1-5.8-24.6l0-34.7c0-20.2-15.4-35.9-35-35.9     c-19.8,0-35.9,16.1-35.9,35.9l0,37.3c0,7.3-1.8,14.6-5.3,21.1L214.7,293.8z"/><path d="M256,329.5c-12.5,0-22.3-12-22.3-27.3c0-4.4,3.6-8,8-8s8,3.6,8,8c0,6.4,3.4,11.3,6.3,11.3s6.3-5,6.3-11.3     c0-4.4,3.6-8,8-8s8,3.6,8,8C278.3,317.5,268.5,329.5,256,329.5z"/></g><g><path d="M163.2,370.8c-1.9,0-3.7-0.6-5.2-2c-32.7-28.4-51.5-69.6-51.5-112.9c0-43.3,18.8-84.5,51.5-112.9     c3.3-2.9,8.4-2.5,11.3,0.8c2.9,3.3,2.5,8.4-0.8,11.3c-29.2,25.4-46,62.1-46,100.8c0,38.7,16.8,75.4,46,100.8     c3.3,2.9,3.7,8,0.8,11.3C167.7,369.9,165.4,370.8,163.2,370.8z"/><path d="M348.8,370.8c-2.2,0-4.5-0.9-6-2.8c-2.9-3.3-2.5-8.4,0.8-11.3c29.2-25.4,46-62.1,46-100.8     c0-38.7-16.8-75.4-46-100.8c-3.3-2.9-3.7-8-0.8-11.3c2.9-3.3,8-3.7,11.3-0.8c32.7,28.4,51.5,69.6,51.5,112.9     c0,43.3-18.8,84.5-51.5,112.9C352.5,370.2,350.7,370.8,348.8,370.8z"/></g></g></g><g><path d="M256,506c-66.8,0-129.6-26-176.8-73.2C32,385.6,6,322.8,6,256S32,126.4,79.2,79.2C126.4,32,189.2,6,256,6   s129.6,26,176.8,73.2C480,126.4,506,189.2,506,256s-26,129.6-73.2,176.8C385.6,480,322.8,506,256,506z M256,16   C123.7,16,16,123.7,16,256c0,132.3,107.7,240,240,240s240-107.7,240-240C496,123.7,388.3,16,256,16z"/></g></svg>